<svg width="80" height="80" viewBox="0 0 80 80" fill="none" xmlns="http://www.w3.org/2000/svg">
<path d="M77.9458 77.6855L68.7281 68.4679L77.5186 64.0733L53.6041 55.2625L62.4149 79.1784L66.8108 70.3865L76.0271 79.6028C76.2942 79.8672 76.64 80.0001 76.9871 80.0001C77.3342 80.0001 77.6814 79.8672 77.9458 79.6028C78.4759 79.0726 78.4759 78.2157 77.9458 77.6855ZM58.1817 59.8387L70.6997 64.4516L65.4292 67.0862L62.7946 72.358L58.1817 59.8387Z" fill="#353535"/>
<path d="M62.6739 28.4746H50.4705H47.7586H38.2671H35.5552H26.0637H23.3518H11.1484V40.678V43.3899V52.8814V55.5933V67.7966H23.3518H26.0637H38.2671V55.5933H50.4705V43.3899H62.6739V28.4746ZM38.2671 31.1865H47.7586V40.678H38.2671V31.1865ZM26.0637 31.1865H35.5552V40.678H26.0637V31.1865ZM35.5552 52.8814H26.0637V43.3899H35.5552V52.8814ZM13.8603 31.1865H23.3518V40.678H13.8603V31.1865ZM13.8603 43.3899H23.3518V52.8814H13.8603V43.3899ZM23.3518 65.0848H13.8603V55.5933H23.3518V65.0848ZM35.5552 65.0848H26.0637V55.5933H35.5552V65.0848ZM47.7586 52.8814H38.2671V43.3899H47.7586V52.8814ZM59.962 40.678H50.4705V31.1865H59.962V40.678Z" fill="#353535"/>
<path d="M46.4027 74.5763H4.36879V21.6949H69.4535V48.8136C69.4535 49.5634 70.0596 50.1695 70.8095 50.1695C71.5593 50.1695 72.1654 49.5634 72.1654 48.8136V20.339V6.77966C72.1654 6.02983 71.5593 5.42373 70.8095 5.42373H64.0298V1.35593C64.0298 0.606102 63.4237 0 62.6739 0H53.1823C52.4325 0 51.8264 0.606102 51.8264 1.35593V5.42373H21.9959V1.35593C21.9959 0.606102 21.3898 0 20.64 0H11.1484C10.3986 0 9.79251 0.606102 9.79251 1.35593V5.42373H3.01285C2.26302 5.42373 1.65692 6.02983 1.65692 6.77966V20.339V75.9322C1.65692 76.682 2.26302 77.2881 3.01285 77.2881H46.4027C47.1525 77.2881 47.7586 76.682 47.7586 75.9322C47.7586 75.1824 47.1512 74.5763 46.4027 74.5763ZM54.5383 2.71186H61.3179V6.77966V10.8475H54.5383V6.77966V2.71186ZM12.5044 2.71186H19.284V6.77966V10.8475H12.5044V6.77966V2.71186ZM4.36879 8.13559H9.79251V12.2034C9.79251 12.9532 10.3986 13.5593 11.1484 13.5593H20.64C21.3898 13.5593 21.9959 12.9532 21.9959 12.2034V8.13559H51.8264V12.2034C51.8264 12.9532 52.4325 13.5593 53.1823 13.5593H62.6739C63.4237 13.5593 64.0298 12.9532 64.0298 12.2034V8.13559H69.4535V18.983H4.36879V8.13559Z" fill="#353535"/>
</svg>
