<svg width="80" height="80" viewBox="0 0 80 80" fill="none" xmlns="http://www.w3.org/2000/svg">
<g clip-path="url(#clip0_8_547)">
<path d="M67.8369 11.7157C60.282 4.16066 50.237 0 39.5526 0C31.7025 0 24.1681 2.24645 17.6711 6.50876L17.1903 6.01537C15.3861 4.1643 12.8134 3.43934 10.3084 4.07636C7.80348 4.71339 5.88943 6.57884 5.1886 9.06678L0.722154 24.9225C0.0214927 27.4101 0.680005 30.0002 2.48381 31.8509C3.85703 33.2598 5.67554 34.0164 7.57058 34.0164C8.1648 34.0164 8.76662 33.942 9.36463 33.7899L25.3301 29.7324C27.8352 29.0957 29.7493 27.2304 30.4504 24.7425C31.0355 22.6661 30.6704 20.5198 29.4858 18.7901C32.6094 17.3079 36.0507 16.5289 39.5526 16.5289C52.4946 16.5289 63.0236 27.058 63.0236 40C63.0236 52.942 52.4946 63.4711 39.5526 63.4711C32.8225 63.4711 26.4055 60.574 21.9469 55.5228C18.9316 52.1068 13.6985 51.7803 10.282 54.7957C8.62695 56.2565 7.63984 58.2744 7.50248 60.4777C7.36513 62.6808 8.09405 64.8058 9.55488 66.4608C17.1493 75.0651 28.0831 80 39.5526 80C50.237 80 60.2822 75.8393 67.837 68.2843C75.3921 60.7293 79.5527 50.6845 79.5527 40C79.5527 29.3155 75.3919 19.2707 67.8369 11.7157ZM27.2686 23.8461C26.8917 25.1836 25.8626 26.1864 24.5159 26.5288L8.55042 30.5861C7.20397 30.9286 5.821 30.5387 4.85124 29.5436C3.88149 28.5486 3.52744 27.1562 3.90414 25.8187L8.37075 9.96281C8.74744 8.62529 9.77637 7.62231 11.1231 7.28C12.4703 6.93769 13.8531 7.32727 14.8228 8.32248L20.2893 13.9312L25.6784 19.4608C25.6788 19.4613 25.6793 19.4617 25.6798 19.4621L26.3217 20.1207C27.2914 21.1159 27.6455 22.5086 27.2686 23.8461ZM65.4993 65.9468C58.5688 72.8773 49.3541 76.6942 39.5526 76.6942C29.0309 76.6942 19.0005 72.1669 12.0332 64.2732C11.1567 63.2802 10.7195 62.0051 10.8018 60.6833C10.8841 59.3615 11.4765 58.1506 12.4694 57.2742C13.4107 56.4435 14.5813 56.0355 15.7479 56.0355C17.122 56.0355 18.4899 56.602 19.4686 57.7104C24.5542 63.4722 31.8745 66.7769 39.5526 66.7769C54.3175 66.7769 66.3294 54.7648 66.3294 40C66.3294 25.2352 54.3174 13.2231 39.5526 13.2231C35.2203 13.2231 30.9648 14.2664 27.1655 16.2502L25.2631 14.2983L20.025 8.92364C25.8577 5.24215 32.5681 3.30579 39.5526 3.30579C49.3541 3.30579 58.5688 7.12264 65.4993 14.0532C72.4301 20.9838 76.2468 30.1985 76.2468 40C76.2468 49.8015 72.4299 59.016 65.4993 65.9468Z" fill="#353535"/>
<path d="M69.4549 55.5383C69.224 55.5383 68.9893 55.4897 68.7656 55.3869C67.936 55.0058 67.5727 54.0243 67.9539 53.1949C69.8374 49.0968 70.7922 44.713 70.7922 40.1653C70.7922 34.2545 69.1342 28.5008 65.9972 23.5263C65.5104 22.754 65.7415 21.7334 66.5137 21.2466C67.286 20.7593 68.3065 20.9909 68.7936 21.7631C72.2636 27.2663 74.098 33.6297 74.098 40.1654C74.098 45.193 73.0415 50.0413 70.9577 54.5754C70.6795 55.1811 70.0805 55.5383 69.4549 55.5383Z" fill="#353535"/>
<path d="M62.0316 17.8055C61.6266 17.8055 61.221 17.6576 60.902 17.3591C58.6101 15.2124 56.0218 13.4298 53.2091 12.0604C52.3883 11.6607 52.047 10.6714 52.4465 9.85062C52.846 9.02996 53.8354 8.68847 54.6561 9.08798C57.7663 10.6024 60.6281 12.5733 63.1618 14.9462C63.8281 15.5701 63.8623 16.6162 63.2384 17.2825C62.9129 17.63 62.4727 17.8055 62.0316 17.8055Z" fill="#353535"/>
<path d="M46.9425 54.3802C45.6179 54.3802 44.3726 53.8643 43.4361 52.9278L36.0808 45.5724C35.1428 44.6344 34.6289 43.3902 34.6303 42.0636C34.6291 42.037 34.6284 42.0104 34.6284 41.9835V24.9587C34.6284 22.2245 36.8529 20 39.5871 20C42.3213 20 44.5458 22.2245 44.5458 24.9587V40.0121L50.4489 45.915C52.382 47.8484 52.382 50.9942 50.4489 52.9276C49.5124 53.8643 48.2671 54.3802 46.9425 54.3802ZM37.9342 41.9387C37.9352 41.9605 37.9359 41.9821 37.9362 42.0041C37.9364 42.0179 37.9362 42.0314 37.9362 42.0451C37.9304 42.4957 38.1017 42.9183 38.4185 43.235L45.7737 50.5904C46.086 50.9026 46.501 51.0745 46.9425 51.0745C47.384 51.0745 47.7992 50.9026 48.1113 50.5904C48.7556 49.9461 48.7556 48.8974 48.1113 48.2529L41.724 41.8658C41.4141 41.5559 41.2399 41.1354 41.2399 40.697V24.9587C41.2399 24.0473 40.4984 23.3058 39.587 23.3058C38.6756 23.3058 37.9341 24.0473 37.9341 24.9587V41.9387H37.9342Z" fill="#353535"/>
</g>
<defs>
<clipPath id="clip0_8_547">
<rect width="80" height="80" fill="white"/>
</clipPath>
</defs>
</svg>
