<svg width="80" height="80" viewBox="0 0 80 80" fill="none" xmlns="http://www.w3.org/2000/svg">
<g clip-path="url(#clip0_8_515)">
<path fill-rule="evenodd" clip-rule="evenodd" d="M80 17.9999V17.7679C80 17.6971 79.9963 17.6263 79.9888 17.5559C79.9928 17.7039 80 17.8511 80 17.9999Z" fill="#353535"/>
<path fill-rule="evenodd" clip-rule="evenodd" d="M59.2 8H64.8V15.2H72V20.8H64.8V28H59.2V20.8H52V15.2H59.2V8ZM62 4C54.244 4 48 10.244 48 18C48 25.756 54.244 32 62 32C69.756 32 76 25.756 76 18C76 10.244 69.756 4 62 4Z" fill="#353535"/>
<path fill-rule="evenodd" clip-rule="evenodd" d="M4 9.13447L25.82 19.2705L26.1168 71.2305L4 60.9537V9.13447ZM2.0688 4.00167C1.80056 3.99244 1.5332 4.03729 1.28266 4.13356C1.03212 4.22983 0.803517 4.37554 0.610473 4.56201C0.41743 4.74849 0.263895 4.97191 0.159015 5.21897C0.0541347 5.46603 5.58659e-05 5.73167 0 6.00007L0 62.2321C6.3959e-05 62.6133 0.109059 62.9865 0.314148 63.3078C0.519237 63.6291 0.811877 63.8851 1.1576 64.0457L26.4904 75.8137C26.7602 75.9391 27.0545 76.0028 27.352 76.0001C27.6373 75.9978 27.9188 75.9345 28.1776 75.8145L52.668 64.4377L77.1584 75.8137C77.4631 75.955 77.7985 76.0173 78.1336 75.9949C78.4688 75.9725 78.7929 75.866 79.076 75.6853C79.3591 75.5046 79.5922 75.2555 79.7537 74.9609C79.9152 74.6664 79.9999 74.336 80 74.0001V18.0001C80.002 22.1106 78.5896 26.0966 76 29.2889V70.8657L53.8576 60.5801L53.7056 33.9641C52.8646 33.5259 52.0595 33.0222 51.2976 32.4577L51.4576 60.5873L28.5168 71.2457L28.2216 19.5609L45.1416 11.7001C46.0238 9.35731 47.3835 7.22361 49.1344 5.43447L27.3328 15.5625L2.8424 4.18647C2.59951 4.0737 2.33644 4.01086 2.0688 4.00167Z" fill="#353535"/>
</g>
<defs>
<clipPath id="clip0_8_515">
<rect width="80" height="80" fill="white"/>
</clipPath>
</defs>
</svg>
