<svg id="Layer_1" data-name="Layer 1" xmlns="http://www.w3.org/2000/svg" xmlns:xlink="http://www.w3.org/1999/xlink" viewBox="0 0 360 800"><defs><clipPath id="clip-path" transform="translate(0 0)"><rect width="360" height="800" style="fill:none"/></clipPath></defs><g style="clip-path:url(#clip-path)"><rect width="360" height="800" style="fill:#fff"/><rect width="360" height="91" style="fill:#64fcd9"/><path d="M0,169l12-4.33c12-4.34,36-13,60-4.34S120,195,144,195s48-26,72-26,48,26,72,26,48-26,60-39l12-13V91H0Z" transform="translate(0 0)" style="fill:#64fcd9;fill-rule:evenodd"/><path d="M355,252H5V602H355Z" transform="translate(0 0)" style="fill:#fff"/><path d="M73.35,505.3c-41.88-29.06,8.28-67.57-4-113.61S27.44,277,144.55,301.45C263.2,326.24,338.46,358.15,320.67,457S115.24,534.35,73.35,505.3Z" transform="translate(0 0)" style="fill:#64fcd9;fill-rule:evenodd"/><path d="M255.16,545.1c-2.63-2.62-3.87-6.28-5-9.8-3,4.4-9.83,4.54-14.49,1.92s-7.81-7.22-11.16-11.4c-6-7.47-31.67-25.93-32.09-31.5-.23-3,8.37-8.34,8.37-8.34l-15.44-9.08s-8,6.14-12.61,6.87c-12.81,2-21.86.83-21.88,3.13,0,8.34,50.42,50.65,34.33,50.32-24.15-.5-68.25-47.5-82.54-51.24-6-1.56-47,.92-47-9,0-13.34,36.65-22.52,36.65-22.52s-9.55-32.21,2-58.55c2.65-6,5.93-13,6.24-19,.09-1.63,46.32-45.41,52.25-47.6a129,129,0,0,1,43.33-7.93c2,0,58,7.93,83.27,49.56,4.56,7.52,25.26,63.39,4.24,98.43-3.32,5.53-2.91,12.39-.62,18.48s5.11,12.86,2.52,18.82a129.24,129.24,0,0,0-7.42-27.95c-4.88,3.55-2.41,11.19.5,16.48l11,20c1.53,2.78,3.11,5.83,2.56,8.95-.63,3.56-3.81,6-6.75,8.14l-20.15,14.44C262.24,548.91,257.79,547.72,255.16,545.1Z" transform="translate(0 0)" style="fill:#fff;fill-rule:evenodd"/><path d="M164.43,397.57a2.87,2.87,0,0,1,3.73-1.39,4.45,4.45,0,0,1,2.43,3.5,10.44,10.44,0,0,1-.53,4.39,32.21,32.21,0,0,1-1.38,3.82c-.05.12-.11.24-.24.27s-.25-.07-.34-.17a13.49,13.49,0,0,1-3.84-8.89A4,4,0,0,1,164.43,397.57Zm4,.34a2.05,2.05,0,0,0-1.37-.52,2.33,2.33,0,0,0-2,2.48,6.79,6.79,0,0,0,1.25,3.24l1.3,2.15c.15.25.44.53.67.36a.55.55,0,0,0,.16-.3c.18-.65.36-1.31.53-2a10.28,10.28,0,0,0,.5-2.85A3.49,3.49,0,0,0,168.44,397.91Z" transform="translate(0 0)" style="fill:#ffb61d;fill-rule:evenodd"/><path d="M167.68,401.66a1.4,1.4,0,0,1-.88,0A1.38,1.38,0,0,1,167,399a1.44,1.44,0,0,1,1.73,1.41A1.42,1.42,0,0,1,167.68,401.66Z" transform="translate(0 0)" style="fill:#ffb61d;fill-rule:evenodd"/><path d="M183,538.16c1,.12.61,1.61,0,2.35a55.35,55.35,0,0,1-22.36,16,21,21,0,0,1-6,1.52,16,16,0,0,1-10.7-3.59,29.33,29.33,0,0,1-7.24-8.9,50.62,50.62,0,0,1-6.08-30.45c.12-1,.79-2.29,1.7-1.89a81.75,81.75,0,0,0-.12,10.5,42.66,42.66,0,0,0,1.56,10.18,51.35,51.35,0,0,0,3.78,8.76,40,40,0,0,0,5.28,8.26,15.23,15.23,0,0,0,8.22,5.07c4,.8,8.16-.59,11.87-2.34A59.8,59.8,0,0,0,183,538.16Z" transform="translate(0 0)" style="fill:#00160a;fill-rule:evenodd"/><path d="M210.87,498.33l21-20.64c.4-.39,1-.8,1.44-.5.62.39.12,1.34-.4,1.86l-22.58,22.33a1.32,1.32,0,0,1-.51-1.59A3.92,3.92,0,0,1,210.87,498.33Z" transform="translate(0 0)" style="fill:#00160a;fill-rule:evenodd"/><path d="M157.32,458.75,156,459a11,11,0,0,1-1.93-4,3.71,3.71,0,0,1,1.53-3.91,3.88,3.88,0,0,0,1.45-4.46,11,11,0,0,0-2.78-4.18c-1.16-1.27-3-2.61-4.39-1.59a2.46,2.46,0,0,1-3-.48,10.51,10.51,0,0,1-1.75-2.85,10.59,10.59,0,0,0-4.29-4.55,6.77,6.77,0,0,0-6.1-.21c-1.87.95-3.05,2.84-4.65,4.2s-4.23,2.09-5.66.56a1.39,1.39,0,0,1-.4-1.45c.2-.49,1-.66,1.27-.2.65,1.19,2.46,1.18,3.6.43a17.86,17.86,0,0,0,2.77-3,8.53,8.53,0,0,1,13.64,1.61,21,21,0,0,0,1.86,3.35c.83,1,2.34,1.58,3.4.86s2.77.2,3.83,1.19A14.84,14.84,0,0,1,158,444.9a6,6,0,0,1-.12,5.64c-.87,1.37-2.55,2.49-2.4,4.11S157.38,457.23,157.32,458.75Z" transform="translate(0 0)" style="fill:#00160a;fill-rule:evenodd"/><path d="M175.79,390.54a13.22,13.22,0,0,1,6.15,5.62,9.41,9.41,0,0,1,.41,8.18c-2.45,5.32-10.21,7.39-11.07,13.17-.21,1.48.08,3-.28,4.45a15.69,15.69,0,0,1-1.24,2.82,13.51,13.51,0,0,0-1.29,6.44c-1,.53-2.15-.61-2.28-1.72s.32-2.23.3-3.35c-.05-2.1-1.68-3.78-3.07-5.37-2.09-2.38-3.9-5.18-4.24-8.32a25.64,25.64,0,0,0-.29-3,13.57,13.57,0,0,0-1.28-3c-1.31-2.65-2.19-5.71-1.39-8.56s3.81-5.2,6.66-4.42a6.11,6.11,0,0,0,2.44.56c1.45-.22,2-2,3.06-3C170.2,389,173.39,389.42,175.79,390.54Zm-12.4,27.65c1.61,2.13,3.23,4.25,4.85,6.38,1.85-1.95,1.08-5.11,1.65-7.74.77-3.59,4-6,6.76-8.42s5.53-5.67,4.91-9.28c-.5-2.91-3-5-5.47-6.64-1.37-.94-3-1.89-4.58-1.58s-2.79,1.77-4,2.95-3,2.22-4.47,1.44c-2.1-1.09-4.77.77-5.36,3.06s.26,4.69,1.19,6.86,2,4.43,1.81,6.78S162,416.36,163.39,418.19Z" transform="translate(0 0)" style="fill:#00160a;fill-rule:evenodd"/><path d="M34.41,369.33c-.1-.29.4-.37.67-.22a.39.39,0,0,1-.66.21Z" transform="translate(0 0)" style="fill:#00160a;fill-rule:evenodd"/><path d="M228.34,485.83a1,1,0,0,1,.72,1.29,3.11,3.11,0,0,1-.92,1.36q-4.72,4.77-9.46,9.55a1.2,1.2,0,0,1-.83.48.83.83,0,0,1-.68-1,2.4,2.4,0,0,1,.62-1.16,98.86,98.86,0,0,1,9.41-10A1.5,1.5,0,0,1,228.34,485.83Z" transform="translate(0 0)" style="fill:#00160a;fill-rule:evenodd"/><path d="M135.69,439.76a4.13,4.13,0,0,1,3.37,3.51,8.81,8.81,0,0,1-1,5.06,22,22,0,0,1-1.37,2.53,2.53,2.53,0,0,1-1.53,1.31c-1.14.19-1.93-1.07-2.37-2.13q-.93-2.27-1.7-4.57a4.87,4.87,0,0,1-.37-2.34,4.09,4.09,0,0,1,2.29-2.68A4.81,4.81,0,0,1,135.69,439.76Zm-1.63,8.85a1.59,1.59,0,0,0,.48.55.91.91,0,0,0,.58.13c.52-.08.85-.57,1.11-1a8.74,8.74,0,0,0,1.48-3.78,3,3,0,0,0-2-3.16c-1.56-.32-3,1.24-3.15,2.83A7.47,7.47,0,0,0,134.06,448.61Z" transform="translate(0 0)" style="fill:#ffb61d;fill-rule:evenodd"/><path d="M135.61,443a1.72,1.72,0,0,1,1.16,2,1.73,1.73,0,1,1-1.16-2Zm-.2,1.88c.33-.17,0-.8-.3-.66a.44.44,0,0,0-.32.61.45.45,0,0,0,.68.1Z" transform="translate(0 0)" style="fill:#ffb61d;fill-rule:evenodd"/><path d="M227.5,460.1a21.87,21.87,0,0,1-2.59-3.39c-.25-.38.25-.88.71-.82a1.86,1.86,0,0,1,1.07.79l3,3.69a.9.9,0,0,1-1.11.52A2.42,2.42,0,0,1,227.5,460.1Z" transform="translate(0 0)" style="fill:#00160a;fill-rule:evenodd"/><path d="M260.54,517.1a.85.85,0,0,1-.09.41,10.92,10.92,0,0,1-2.4,3.6c-1.63,1.63-3.84,2.84-4.72,5a.89.89,0,0,1-1.38.21,1.47,1.47,0,0,1-.28-1.52,4.27,4.27,0,0,1,.91-1.36l3.51-4a9.49,9.49,0,0,1,3.07-2.65C259.67,516.51,260.5,516.54,260.54,517.1Z" transform="translate(0 0)" style="fill:#00160a;fill-rule:evenodd"/><path d="M228.69,454.52l3.47,4.07a1.21,1.21,0,0,1,.38.78.83.83,0,0,1-1,.64,2.32,2.32,0,0,1-1.1-.82,25.26,25.26,0,0,1-2.61-3.65c-.3-.51-.41-1.39.16-1.46C228.25,454,228.5,454.29,228.69,454.52Z" transform="translate(0 0)" style="fill:#00160a;fill-rule:evenodd"/><path d="M215.39,462.08c-.17-.25-.35-.57-.2-.83.24-.44.91-.1,1.24.27a20.63,20.63,0,0,1,3,4.39c-.75.38-1.55-.4-2-1.08Z" transform="translate(0 0)" style="fill:#00160a;fill-rule:evenodd"/><path d="M216.43,466c.47.48.95,1.29.46,1.76s-1.29-.06-1.73-.6A23.11,23.11,0,0,1,212.4,463c.49-.42,1.22.07,1.67.53Z" transform="translate(0 0)" style="fill:#00160a;fill-rule:evenodd"/><path d="M217.71,461.17c-.21-.32-.41-.75-.18-1.05s1,0,1.37.36c1.07,1.15,2.14,2.29,3.2,3.44a.81.81,0,0,1-.94.6,2.09,2.09,0,0,1-1.06-.62A15.55,15.55,0,0,1,217.71,461.17Z" transform="translate(0 0)" style="fill:#00160a;fill-rule:evenodd"/><path d="M224.45,458.63l2,2.54c.26.34.54.77.37,1.16a.83.83,0,0,1-1.07.32,2.39,2.39,0,0,1-.89-.84c-.7-.92-1.39-1.86-2.07-2.79a1.05,1.05,0,0,1-.28-.7c0-.42.58-.64,1-.51A2.11,2.11,0,0,1,224.45,458.63Z" transform="translate(0 0)" style="fill:#00160a;fill-rule:evenodd"/><path d="M224,462.54a.78.78,0,0,1,.27.53.52.52,0,0,1-.61.4,1.4,1.4,0,0,1-.69-.41,15.37,15.37,0,0,1-3.29-4.19c.16-.43.82-.14,1.13.2Z" transform="translate(0 0)" style="fill:#00160a;fill-rule:evenodd"/><path d="M236.84,454.89a.59.59,0,0,1,.21.41.44.44,0,0,1-.53.35,1.31,1.31,0,0,1-.6-.37q-1.87-1.74-3.58-3.64c.4-.54,1.25-.11,1.74.36C235,452.92,236,453.88,236.84,454.89Z" transform="translate(0 0)" style="fill:#00160a;fill-rule:evenodd"/><path d="M232.88,456l-2.09-2.87a.71.71,0,0,1-.2-.6c.14-.4.75-.22,1.08.05a11,11,0,0,1,2.62,3.08.94.94,0,0,1,.17.75.66.66,0,0,1-.86.28A2,2,0,0,1,232.88,456Z" transform="translate(0 0)" style="fill:#00160a;fill-rule:evenodd"/><path d="M238.46,452.52l-2.07-2.23c-.25-.26.05-.73.41-.77a1.42,1.42,0,0,1,1,.41c.53.41,1,.84,1.52,1.3a2.13,2.13,0,0,1,.64.88.75.75,0,0,1-.39.92C239.14,453.17,238.75,452.83,238.46,452.52Z" transform="translate(0 0)" style="fill:#00160a;fill-rule:evenodd"/><path d="M237.12,454c-1-1-1.87-2-2.74-3.05a.79.79,0,0,1-.25-.64.53.53,0,0,1,.67-.28,1.5,1.5,0,0,1,.61.51l2.4,2.84c.21.25.43.65.18.88S237.36,454.23,237.12,454Z" transform="translate(0 0)" style="fill:#00160a;fill-rule:evenodd"/><path d="M282.59,514.59c1.08-.33,3.81-1.08,4.89-1.41.48-.15,1.2-.17,1.29.33s-.39.69-.79.82a37.53,37.53,0,0,1-5,1.17c-.4,0-1-.1-.91-.5C282.11,514.77,282.37,514.66,282.59,514.59Z" transform="translate(0 0)" style="fill:#00160a;fill-rule:evenodd"/><path d="M162,469.47c1.71,0,3.73.42,4.41,2s-.36,3.24-1.77,4a9.74,9.74,0,0,1-4.7.78q-32.83,0-65.65-1.58c-1.36-.07-1.49-2-1.18-3.36a4.39,4.39,0,0,1,1-2.21,4.5,4.5,0,0,1,3.29-.89c15.73-.05,31.47-.1,47.13,1.34A74.32,74.32,0,0,0,152,470C155.35,470,158.69,469.42,162,469.47Zm2.45,4a1.54,1.54,0,0,0-.9-1.95,4.67,4.67,0,0,0-2.38-.17c-10.26,1-20.59-.15-30.89-.75-7.48-.44-15-.58-22.47-.72l-9.37-.17a4.21,4.21,0,0,0-2.85.63c-.77.64-.8,2.14.15,2.44a1.67,1.67,0,0,0,.54.07q33,1.6,66,1.44C163.16,474.26,164.13,474.16,164.49,473.44Z" transform="translate(0 0)" style="fill:#00160a;fill-rule:evenodd"/><path d="M148.07,487.16a14.42,14.42,0,0,0,10.8,8.13c2.19.33,3.68,2.32,4.93,4.14s2.24,5.12.1,6l24.91,27.46c1,1.06,1.9,2.84.78,3.74a2.47,2.47,0,0,1-1.52.4c-6.84.23-13.29-3-19.21-6.4a192,192,0,0,1-24.33-16.75,21.18,21.18,0,0,0-20.38-3.29,6.15,6.15,0,1,1-1.3-11.84,30.13,30.13,0,0,0-25.44-13,134.26,134.26,0,0,1-35.72-3.74,4.81,4.81,0,0,1-2.77-1.39c-1.28-1.67.07-4,1.48-5.6a50.63,50.63,0,0,1,41.77-16.23c.65.06,1-.74,1.16-1.38q5.9-24.51,11.77-49c.47-2,3.47-2.25,5-.87s1.82,3.57,2,5.59c1.27,15-1,31.25,6.53,44.37a4,4,0,0,0,1.35,1.59,4.19,4.19,0,0,0,2,.37l41.56.74c1.72,0,3.84-.18,4.54-1.75q2.67-6.08,5.36-12.14c.57-1.29,1.35-2.75,2.74-3,2-.31,3.26,2.19,3.19,4.21s-.74,4.15.15,6c3.25-3.45,6.56-7,10.63-9.41s9.07-3.75,13.63-2.43l-12.1,19.24c3.37,2.23,3.63,7.87.49,10.41-1.35,1.08-.28,3.22.83,4.53l10.46,12.4c-3,1.38-6.44,0-9.37-1.53-5.22-2.64-10.33-5.54-15.28-8.67-2.41-1.51-5.06,1.33-7.24,3.15-3.46,2.9-8.25,3.47-12.74,3.93Zm12.05-9c4.24.24,8.57.53,12.68-.52a20.06,20.06,0,0,0,10.74-7,4.37,4.37,0,0,1,2.83-1.24c3.59-.62,7.38-1.23,10.82,0a3.69,3.69,0,0,0,3.93-6c-1.23,0-1.45,1.7-2.1,2.74-.85,1.36-2.71,1.58-4.32,1.66l-17.68.89c-1.43.07-3.4-.34-3.36-1.78a2.53,2.53,0,0,1,.93-1.59,23.05,23.05,0,0,1,5.35-3.89q-35.91.27-71.8-.81c-11.76-.35-24.3-.62-34.33,5.55-.93.58-1.67,2.27-.58,2.44l9.59,1.48a1.92,1.92,0,0,1,1.07.4c.82.81-.33,2.11-1.4,2.56a16.08,16.08,0,0,1-13.79-.75c-1-.52-2.07-1.16-3-.67-1.16.59-1,2.46,0,3.32A6.1,6.1,0,0,0,69.34,476l35.1,2.17a81.47,81.47,0,0,0,9.88.2A393.15,393.15,0,0,1,160.12,478.18Zm17.08,45.36A104.77,104.77,0,0,0,163.3,508a55.15,55.15,0,0,1-4.65-5q-9.68-11.4-19.38-22.79a3.64,3.64,0,0,0-2.75-.88,121,121,0,0,0-25.35,1.87,2.82,2.82,0,0,0-1.69.74c-1,1.1.24,2.72,1.34,3.66q16.64,14.18,34.45,26.86a37.1,37.1,0,0,0,6.87,4.16l14,6C169.65,524.07,173.89,525.55,177.2,523.54Zm-55.55-83.85a33.08,33.08,0,0,0-.78-6.61c-1.1-3.86-4-6.89-6.94-9.64-.23-.21-.53-.44-.82-.33s-.36.41-.42.69q-3.25,14.83-6.52,29.68a21.84,21.84,0,0,0-.73,5.67l22.85.29A42.82,42.82,0,0,1,121.65,439.69ZM211.16,443a16.87,16.87,0,0,0-13,4.64,188.07,188.07,0,0,1-19.92,16.82,5.47,5.47,0,0,0-2.32,2.63l17.65-.8c1.55-.07,3.38-.3,4.12-1.67A213.36,213.36,0,0,1,211.16,443Zm-151,35a1.68,1.68,0,0,0-.21,1.09c.15.65.91.92,1.56,1.08,13.16,3.19,26.8,3.6,40.33,4a9.18,9.18,0,0,0,4-.47,3.16,3.16,0,0,0,2.07-3.13,196.68,196.68,0,0,0-26.55-1.87c-5.32,0-10.79.16-15.78-1.69-1.2-.45-2.56-1.34-2.41-2.62A9.43,9.43,0,0,0,60.15,478Zm125.43-2.38a2.58,2.58,0,0,0-2.9-1.16,8.37,8.37,0,0,0-3,1.58,20.74,20.74,0,0,1-7,3.4,26.9,26.9,0,0,1-6.77.45l-24.85-.44c1.84,2.75,4.37,5.84,7.67,5.48,6.44-.71,13-.54,19.37-1.48S181.07,480.29,185.58,475.63Zm19.16,7.09c.31,0,.66-.14.75-.43a.84.84,0,0,0-.21-.71,81.39,81.39,0,0,0-8.24-9.94,4.72,4.72,0,0,0-1.52-1.23,4.28,4.28,0,0,0-2-.19,32.54,32.54,0,0,0-8.16,1.68c-.21.07-.46.19-.48.42a.62.62,0,0,0,.23.45c2.77,2.81,6.22,4.82,9.64,6.79C197.82,481.35,201.21,483.2,204.74,482.72Zm-78.65,18a1.85,1.85,0,0,0-.85-.45,2.06,2.06,0,0,0-.78.12l-1.75.55c-.58.18-1.29.7-1,1.2a7.64,7.64,0,0,1,1.15,5.36c-.1.6.76.82,1.37.78l9.38-.67c.33,0,.77-.19.69-.5Zm53.62-42.32c-.22.57.37,1.2,1,1.26a3.15,3.15,0,0,0,1.73-.54c1.94-1.08,4-2.34,4.76-4.43a9,9,0,0,0,.39-2.13c.12-1.24.25-2.47.37-3.71a1.28,1.28,0,0,0-.09-.8c-.15-.23-.53-.33-.7-.11a5.1,5.1,0,0,1-2.67,1.91,4.08,4.08,0,0,0-1.34.5,3,3,0,0,0-.9,1.44C181.4,454,180.55,456.24,179.71,458.45ZM160.43,498a3.28,3.28,0,0,0-4.61-1.05c1.86,1.46,2.91,3.7,4.48,5.46a2.78,2.78,0,0,0,2.07,1.13c.81-.05,1.48-1.14.9-1.71A16.14,16.14,0,0,1,160.43,498Zm-41.37,4.3c-1.25,1.23-.82,3.3-.31,5,.18.57.74,1.27,1.2.9a1,1,0,0,0,.26-.53,8.89,8.89,0,0,0,.36-2.94A3,3,0,0,0,119.06,502.31Z" transform="translate(0 0)" style="fill:#00160a;fill-rule:evenodd"/><path d="M258,547.43c-2.63-2.61-3.87-6.28-5-9.8-3,4.4-7,7.53-11.65,4.9s-10.65-10.2-14-14.37a96.22,96.22,0,0,0-21.05-19.43,27.3,27.3,0,0,1,7,17.1l9.64-.1a82.62,82.62,0,0,1-33.75,4.09,48.14,48.14,0,0,0,13.9-19.51c-.65-2-3.71-1.57-5.5-.4s-4.1,2.66-5.83,1.39c-2.12-1.56-2-6.44-4.49-5.68a13.91,13.91,0,0,1-16.56-8.4L166,500.11c-.75-2.39,2.7-4.24,5-3.29s3.68,3.28,5.29,5.2,4.19,3.61,6.48,2.62c4.28-1.87,9.9,1.5,10.28,6.14a14.46,14.46,0,0,1,12-2.78,86.5,86.5,0,0,0-8.83-10.82,34.76,34.76,0,0,1,8.91-8.32,26.7,26.7,0,0,1-6.81,8.28l43,42.15c.91.88,1.94,1.82,3.2,1.84s2.51-1.07,3.45-2.08l20.18-21.66c1.75-1.88,3.59-3.95,3.86-6.51.32-3.21-1.92-6.05-4.06-8.47a344.06,344.06,0,0,0-27.43-27.65c-4.23-3.81-9.82-7.77-15.14-5.75-6.43,2.43-8,12.11-14.56,14q3-4.06,5.92-8.14c-3.92-2.83-8.81-9.15-9.07-14A48.15,48.15,0,0,1,218,454.22c-3.21-7.57-2.83-9.14,1.47-10.17s8-2.06,12-3.38c10.95-3.66,16.17-21,7-28.23-5-4-42.95-42.91-59.22-57.27,1.24,5.49-6,10.68-10.81,7.74.92,3.16-1.29,7-4.56,7.42s-6.47-3.22-5.32-6.31c1-2.66,4.14-3.76,6-5.94s.23-6.93-2.26-5.57c-1.31,5.29-9.05,7.55-13,3.79A5.71,5.71,0,0,0,144.1,355c-2.28.38-6.23,1.26-7.92,2.9-2.64,2.57-3.24,6.31-6.39,8.05a9.77,9.77,0,0,1-1.58.71c-4.05,1.37-9.71-2.63-7.61-6.35a72.66,72.66,0,0,0-22.11,40.47c6,1.71,7.14,9.6,7.12,15.84-6.77,1.72-.4,14.65-6.25,18.46-6.68,4.34-4.83,14.44-2.18,21.95A62.89,62.89,0,0,1,95,410.06l-1.59,28.82c4.54-.67,6.38-6.2,6.75-10.77s.66-10,4.51-12.47a26,26,0,0,1-1.71-11.57l-5-1.62c-1,7.08-8.86,10.56-15.34,13.57A91.37,91.37,0,0,0,63,428.31c-6.39,5.25-12.47,12.47-11.77,20.72C52,457,58.78,463,66,466.45c-7.68,0-14.26-6.84-15.5-14.42s2.06-15.37,7.22-21,12-9.55,19-12.83c9.09-4.3,20.11-9.87,20.45-19.92.28-8.38,9.47-16.59,5.07-23.72A66.82,66.82,0,0,1,92.26,341c-.12-5.81.94-12.38,5.7-15.71,2.37-1.65,5.32-2.23,8.19-2.56a60.24,60.24,0,0,1,31.4,4.88c5.77,2.6,12.08,6.2,18,4a129.25,129.25,0,0,1,43.33-7.93c2,0,3.6-1.46,5-2.87,5.39-5.56,9.89-12,15.75-17s13.67-8.68,21.25-7.12c7.93,1.64,13.86,8.7,16.45,16.38s2.45,16,2.27,24.07c-.31,14.51,17.88,22.41,22.58,36.14,2.77,8.09,11.9,11.85,20.12,14.23s17.42,5,21.65,12.47c3.95,6.93,2,16-2.66,22.46s-11.55,10.9-18.28,15.18c-10.88,6.92-7.83,24.62-16.59,34.09-4.42,4.78-2.91,12.39-.62,18.48s5.11,12.86,2.52,18.82a129.39,129.39,0,0,0-7.42-27.95c-4.88,3.56-2.41,11.2.5,16.49l11,20c1.53,2.77,3.11,5.83,2.56,8.94-.63,3.57-3.81,6-6.75,8.14q-10.06,7.23-20.15,14.44C265,551.24,260.59,550.05,258,547.43ZM272.29,486c-.59-.66-1.66-.34-2.47,0l-2.42,1.11a.86.86,0,0,1-.56.12c-.35-.1-.41-.62-.19-.92a1.89,1.89,0,0,1,1-.52,17,17,0,0,0,2.17-.88c.4-.2.83-.47.93-.9s-.38-1-.75-.7a11.23,11.23,0,0,1-3.58,1.61c-.38.09-1,0-.89-.41a.64.64,0,0,1,.3-.33,14.08,14.08,0,0,1,3.68-1.62c.46-.13.35-.92-.1-1.11a1.81,1.81,0,0,0-1.39.19l-3.22,1.41c-.23.1-.49.23-.55.48a.82.82,0,0,0,.19.62l2.34,3.67a1,1,0,0,0,.46.45.94.94,0,0,0,.69-.13Q270.12,487.13,272.29,486ZM198.93,353.05c-2.53,0-4.43-2.83-4-5.32s2.71-4.34,5.12-5.08c3.29-1,7.21-.41,9.83-2.63,1.18-1,1.9-2.44,3-3.55a7.67,7.67,0,0,1,9.26-1.16c.64-1.69-1.26-3.32-3-3.62s-3.7.06-5.34-.7c-2.88-1.32-6.27.38-8.58,2.56s-4.19,4.92-7,6.33-7.14.62-7.93-2.46c-.24-.95-.27-2.22-1.2-2.54a3.71,3.71,0,0,1-2.15-3.79,10.79,10.79,0,0,1,1.56-4.37,54.44,54.44,0,0,0-8.66.27c-.69.08-1.57.37-1.56,1.06,0,1.44-1.33,2.46-2.53,3.25l-7.59,5c.08,1.67,2.55,2.07,4,1.23s2.46-2.36,4-3a7.83,7.83,0,0,1,2.64-.4l4.57-.19c1.95-.08,4.59.42,4.69,2.37.09,1.6-1.69,2.54-2.83,3.67-2.59,2.57-2.58,7.54-6,8.87-1.21.47-1.53,2.15-1,3.33a7.51,7.51,0,0,0,2.68,2.75c18.25,13.39,50,47.92,50.74,48s1.51-.41,1.47-1.11a17.82,17.82,0,0,1,.25-5.41,6.09,6.09,0,0,1,3.17-4.19c1.53-.68,3.76-.83,4.09-2.47a8.12,8.12,0,0,1,8.14-6.29c1.84.1,3.86.8,5.39-.22-1.23-1.17-3.05-1.41-4.58-2.15s-2.87-2.62-2-4.06c1.35-2.11-.61-4.87-.21-7.35a6.92,6.92,0,0,1,1.39-2.84,28.64,28.64,0,0,1,7.87-7.33,2.94,2.94,0,0,0,1-2.22l.81-6c.19-1.4.32-3-.65-4-3.12-3.37-8.33-3.48-12.92-3.33s-9.79.09-13-3.23c-1-1-2.79-.67-3.86.27a16.56,16.56,0,0,0-2.46,3.48,11.6,11.6,0,0,1-11.68,4.74c-2.34-.49-4.69-1.72-7-1.06C203.85,349,202.11,353,198.93,353.05Zm87.8,91c.14.51.35,1.09.85,1.26a1.65,1.65,0,0,0,1.21-.23l3.81-1.84c.65-.31,1.38-.73,1.5-1.44a106.82,106.82,0,0,0-2-43.63,66,66,0,0,0-3.27-9.87,86,86,0,0,0-6.41-11.62q-5.1-8.1-10.61-15.91a12.92,12.92,0,0,0-1.24,3.57,4.8,4.8,0,0,1-2,3.07c-1.12.59-2.84.09-3-1.16a5.33,5.33,0,0,0-6-4.23c-.58.1-.77.82-.84,1.41q-1,8-2,15.9c-.05.39-.07.85.23,1.09a1.41,1.41,0,0,0,.94.15,3.08,3.08,0,1,1-1.17,5.91c-.72-.31-1.29.68-1.47,1.45l-3.3,13.9c-.32,1.37.86,2.66,2.13,3.26s2.72.82,3.89,1.6c2.91,2,2.79,6.44,5.15,9.05a6.12,6.12,0,0,0,7.81.85c2.09-1.49,3-4.21,3-6.77a4.63,4.63,0,0,1,7.6-3.54,9.42,9.42,0,0,1,2.43,4.42,3.5,3.5,0,0,1,.22,2.2c-.42,1.15-1.84,1.5-3,1.89a10,10,0,0,0-5.21,4.12c-.59.93-1,2.24-.26,3.06L281,428a9.25,9.25,0,0,1,2.26,3.52Q285,437.75,286.73,444ZM105.49,377.64c2.79-5.2,5.6-10.44,9.39-15a84,84,0,0,1,11.3-10.59q7.89-6.51,15.87-12.88a33.78,33.78,0,0,1,7-4.73c-7.74-3.41-15.53-6.84-23.74-8.84s-17-2.53-25.08-.12a8.08,8.08,0,0,0-2.24.95,7.35,7.35,0,0,0-2.4,3.29c-2.12,5-2,10.61-1.31,16A81.84,81.84,0,0,0,105.49,377.64ZM280.24,532.08c-.07.76-.89,1.47-1.57,1.14a1.76,1.76,0,0,1-.7-.8l-8.19-14.29c-1.76.66-2.61,2.78-2.41,4.65a12.83,12.83,0,0,0,2.17,5.16l4.47,7.39c-.79.81-2.05-.26-2.63-1.23l-6.2-10.29L253.33,536l7.72,12.06a2.83,2.83,0,0,0,3,1,8.3,8.3,0,0,0,3-1.55l20.67-14.71a2.71,2.71,0,0,0,1.24-1.42,2.75,2.75,0,0,0-.5-1.91Q265,486.93,238.56,446.19c-.52-.8-1.18-1.68-2.13-1.74a3.07,3.07,0,0,0-1.76.63l-21,12.92-3.89,2.39a1.24,1.24,0,0,0-.42,2.13q3.81,5.88,8.06,11.46c3.34-3.59,7.31-7.46,12.22-7.34,4.23.1,7.73,3.18,10.81,6.09l5.41,5.09a93.92,93.92,0,0,0-10.05-15.1c-.16-.79,1.23-.57,1.76,0,5.35,6,8.29,13.91,13.91,19.65L268.74,500c2.44,2.49,5,5.31,5.22,8.79.18,3.18-1.71,6.08-3.61,8.64A106.72,106.72,0,0,1,279.5,530,3.54,3.54,0,0,1,280.24,532.08Zm-60.88-204.7c2.42.48,4.84,1,7.22,1.63,6.11,1.73,11.8,4.68,17.44,7.62a97.25,97.25,0,0,1,14.28,8.5c.48-12,0-23.92-4-35.25a22.05,22.05,0,0,0-6.63-8.95c-3.18-2.54-7.59-3-11.62-2.41-7,1-13.44,4.77-18.71,9.53s-9.55,10.5-13.8,16.2ZM290,385.63a108.84,108.84,0,0,1,6.38,54.88A81.83,81.83,0,0,0,319,421.33c3.14-3.84,6-8.35,5.84-13.3-.17-4.07-2.49-7.82-5.54-10.51a36.48,36.48,0,0,0-10.58-6A122.07,122.07,0,0,0,290,385.63Zm-13.32,29.64a31.13,31.13,0,0,1,5.09-3,8.26,8.26,0,0,0-.47-3.36,2.89,2.89,0,0,0-2.63-1.86,3.16,3.16,0,0,0-2.48,2.32,35,35,0,0,0-.65,3.54A8.22,8.22,0,0,1,260.3,415c-1.28-2.35-1.47-5.39-3.51-7.13a9.45,9.45,0,0,0-4.08-1.67,1.93,1.93,0,0,0-1,0c-.53.18-.77.76-1,1.28q-1.85,5.25-3.7,10.48c-.46,1.29-.83,2.94.19,3.86,9.43,8.44,13.26,21.86,22.85,30.12a1.23,1.23,0,0,0,1,.41,55.18,55.18,0,0,0,13.16-5,2,2,0,0,0,.87-.7,2,2,0,0,0,.17-1.1,16.42,16.42,0,0,0-2.24-7.44,8.5,8.5,0,0,1-1.52-3.34c-.1-1,.29-2.13,0-3.16a5.23,5.23,0,0,0-1.38-2.15l-4.91-5.4a6.91,6.91,0,0,1-1.91-3C272.88,418.74,274.79,416.66,276.68,415.27ZM174,362.21a6.13,6.13,0,0,0,2.89-5.73c-.3-3.27-3.13-5.66-5.73-7.67-4.27-3.29-14-11.3-18.31-13S129.62,351,123,357.49a2.39,2.39,0,0,0-.78,1.14c-.09.46-2.1,5.39,2,6.59s4.5.27,6.15-1.2a13.75,13.75,0,0,0,3.41-5.64c.66-1.77,2.67-2.62,4.53-3s3.85-.52,5.39-1.63a6,6,0,0,1,5.65-.33,17.49,17.49,0,0,1,4.79,3.42c1.23,1.1,3.21-.13,4-1.6s1.08-3.27,2.4-4.25c1.89-1.41,4.78-.15,6,1.9a6.62,6.62,0,0,1-2.45,8.7c-1.7.94-4.18,1.57-4.25,3.51a3.18,3.18,0,0,0,1.39,2.42c1.35,1.09,3.54,1.61,4.69.31,1.63-1.85-.19-5.75,2.07-6.73C169.88,360.23,172.18,363.33,174,362.21Zm51.63-20.69a6.7,6.7,0,0,1,2.48-2.73c1.45-.69,3.18-.14,4.55.68a25.56,25.56,0,0,0,4.09,2.47,12.25,12.25,0,0,0,4.83.39l8.11-.4c-16.33-9.46-34.7-16.1-53.57-16.29a13.55,13.55,0,0,0-4.71.57,5,5,0,0,0-3.23,3.26c-.58,2.35,1.56,4.86,4,4.94-1.27.92-1.07,3.07.13,4.08a4.44,4.44,0,0,0,4.46.39,13.07,13.07,0,0,0,3.75-2.78l6.36-6c1.33-1.27,3.4-1.32,5.2-1s3.56,1,5.39,1a6.83,6.83,0,0,1,6.6,7.65,7.66,7.66,0,0,0-12.1,2.11,6.42,6.42,0,0,1-4.71,3c-1.89.35-3.85.28-5.73.67s-3.81,1.38-4.58,3.15.23,4.28,2.15,4.45c2.23.21,3.54-2.41,5.42-3.64s4.11-1,6.2-.56,4.17,1.17,6.3,1C220.73,347.59,223.66,344.64,225.67,341.52ZM285.46,449l-12.83,5c-.6.23-1.32.82-1,1.35A70.58,70.58,0,0,1,280.94,475c.2.68,1.23.17,1.63-.41A70.74,70.74,0,0,0,291.41,457a5.94,5.94,0,0,0,.41-3.49c-.52-1.8-2.45-2.7-3.87-3.92a2.79,2.79,0,0,0-1.31-.79A2.44,2.44,0,0,0,285.46,449ZM236.1,395.54c-2,2.08-.31,5.62-1.32,8.3-.22.6-.58,1.22-.38,1.82a2.21,2.21,0,0,0,.56.76l2.1,2.1c.54.55,1.43,1.12,2,.6a21.17,21.17,0,0,1,8.25-4.7,5,5,0,0,0,2.45-1.18,4.51,4.51,0,0,0,.88-2.24q1.29-6.69,2.57-13.37a1.79,1.79,0,0,0,0-1.05,1.62,1.62,0,0,0-.84-.72,7.5,7.5,0,0,0-9.66,3.51c-.54,1.18-.79,2.54-1.69,3.46C239.7,394.18,237.4,394.16,236.1,395.54Zm-68.62-57a3,3,0,0,1-1.29-2.26c.07-1,.95-1.61,1.75-2.14l8.52-5.57c-.06-.55-.84-.61-1.39-.51a101.57,101.57,0,0,0-21.44,6.41,203.77,203.77,0,0,1,22,15.67c.85-1.93,3-2.88,4.33-4.54,1.63-2.09,1.75-5.2,3.76-6.94,1-.86,2.44-1.45,2.64-2.74l-5.17,0c-2.09,0-4.32.07-6.07,1.23-1.52,1-2.68,2.87-4.51,2.92A4.74,4.74,0,0,1,167.48,338.52Zm85.89,114.62,4,7.19a203.33,203.33,0,0,0-8.74-22.88,1.28,1.28,0,0,0-.52-.68,1.35,1.35,0,0,0-1,.05l-28.49,9.53a1.34,1.34,0,0,0-.76.47,1.31,1.31,0,0,0,0,1.06,22.41,22.41,0,0,0,2.17,4.39l17.87-10.4a6.49,6.49,0,0,1,2.94-1.13,5.27,5.27,0,0,1,2.52.69C248,443.78,250.83,448.58,253.37,453.14ZM210.24,518a15.44,15.44,0,0,0-5.61-6.2,114.6,114.6,0,0,1-9.93,15.38c-.28.38-.39,1.14.08,1.1l13.57-.95c.91-.06,2-.25,2.33-1.1A10.53,10.53,0,0,0,210.24,518Zm68.3-37.73a5.77,5.77,0,0,0,.89-1.79,5.61,5.61,0,0,0-.26-2.62A73.91,73.91,0,0,0,271,457.18a5.12,5.12,0,0,0-1.52-1.8,1.86,1.86,0,0,0-2.21,0c-.78.72-.48,2-.13,3l8.43,23.74c.17.47.55,1.05,1,.87a.93.93,0,0,0,.41-.4ZM250.35,379.64a6.82,6.82,0,0,0,2.93,1.18c.83.19,1.32-.89,1.47-1.73,1-5.62,1.57-11.28,2.19-16.95-.47-.2-1,.19-1.34.54l-4,3.85a6.86,6.86,0,0,0-2.18,3.11c-.55,2.37,1.47,5.08.19,7.15A2.35,2.35,0,0,0,250.35,379.64Zm-2.88,44.91a2.71,2.71,0,0,0-1.11-.88,1,1,0,0,0-1.2.47l-4.23,12.08c-.13.38,0,1,.35.91,2.37-.7,4.56-1.94,6.94-2.61s5.17-.65,7.08.93A63.78,63.78,0,0,0,247.47,424.55Zm20.32-58.85c.72-1.93,1.43-3.87,2.15-5.8.13-.38-.14-.77-.4-1.07a60.55,60.55,0,0,0-8.2-8.58.68.68,0,0,0-.45-.21c-.32,0-.45.42-.49.73-.38,2.7-.77,5.4-1.15,8.1a1.74,1.74,0,0,0,1.37,1.7,20.6,20.6,0,0,0,2.36.32,4.51,4.51,0,0,1,3.28,2.65C266.62,364.4,266.88,365.54,267.79,365.7ZM245,417.84q2-5.18,3.71-10.47a1.24,1.24,0,0,0,.07-.73c-.22-.63-1.15-.47-1.75-.17a52.64,52.64,0,0,0-6.72,4c-.26.19-.55.43-.56.75a1.06,1.06,0,0,0,.3.66Q242.46,415,245,417.84ZM264.8,474.7a1.34,1.34,0,0,0-1-.31,7,7,0,0,0-2.47.5,3.62,3.62,0,0,1-1.18.38,1,1,0,0,1-1-.6,7,7,0,0,1,3.78-1.29c.6,0,.62-1,.09-1.33a2.12,2.12,0,0,0-1.73.14l-2.78,1.07c-.27.1-.55-.22-.51-.51a1.13,1.13,0,0,1,.5-.68,6.3,6.3,0,0,1,2.86-1.22c.5-.08.58-.84.22-1.19a1.88,1.88,0,0,0-1.42-.34,13.16,13.16,0,0,0-4.24.93c1.15,2.06,2.33,4.12,3.53,6.16a3.44,3.44,0,0,0,1.19,1.37,6,6,0,0,1,4-2.2C265,475.54,265.06,475,264.8,474.7ZM284.65,512c-.89.22-1.77.48-2.64.77-.24.08-.51.21-.55.45a.67.67,0,0,0,.12.43l1.53,2.94c.2.4.62.87,1,.64a11.34,11.34,0,0,1,4.16-1.45.88.88,0,0,0,.67-.89,2.68,2.68,0,0,0-.34-1.16,3.79,3.79,0,0,0-1.23-1.65A3.53,3.53,0,0,0,284.65,512Zm3.43,10.78c-.35.07-.75.17-.89.5a1.12,1.12,0,0,0,.12.83c.45,1,.89,2,1.33,3,.14.32.32.67.66.74a1,1,0,0,0,.7-.16l2.05-1a2.12,2.12,0,0,0,1-.76.73.73,0,0,0-.31-1.06,1,1,0,0,0-.66.12,11.85,11.85,0,0,1-1.81.92,1.53,1.53,0,0,1-1.8-.56,20.58,20.58,0,0,0,4.57-2.29c-.13-.88-1.37-1-2.25-.8Zm-13.14-23.07a2.36,2.36,0,0,1,1-.56l3-1.06c.52-.19.39-1-.1-1.31a2.2,2.2,0,0,0-1.61.07l-3.44,1.06a.85.85,0,0,0-.41.21c-.24.27-.08.68.09,1l1.36,2.52a.57.57,0,0,0,.21.25.56.56,0,0,0,.4,0l4.18-1.44c.33-.12.73-.33.7-.68s-.74-.48-1.19-.34l-4.31,1.37A.83.83,0,0,1,274.94,499.71ZM292.76,445l-3.7,2.09a.9.9,0,0,0-.39.33c-.21.39.21.82.59,1.07l2.3,1.55a1,1,0,0,0,.5.21c.41,0,.62-.49.73-.89l1-3.85a.82.82,0,0,0,0-.49C293.66,444.66,293.11,444.8,292.76,445Zm-16.25,57.58c-.3.08-.64.19-.75.48a.82.82,0,0,0,.09.66,3.31,3.31,0,0,0,1.13,1.33l3.89-1.48c.55-.22,1.21-.57,1.19-1.17a1,1,0,0,0-.84-.84,3,3,0,0,0-1.26.13ZM257.74,456a3.29,3.29,0,0,0,2.56,1.3l4.69.76c0-.89-.89-1.48-1.7-1.84a25.13,25.13,0,0,0-4.64-1.5,1.15,1.15,0,0,0-.52,0C257.62,454.8,257.5,455.52,257.74,456Zm-5.8-.67a1.42,1.42,0,0,0,.35-.17,1,1,0,0,0-.15-1.48,1.91,1.91,0,0,0-1.67-.11c-.55.17-1.07.46-1.63.59-.77.17-1.77.16-2.06.89a1.2,1.2,0,0,0,1,1.46,3.39,3.39,0,0,0,1.94-.33Zm3,5.59c.63-.41.33-1.49-.34-1.83a3.22,3.22,0,0,0-2.21,0,3.9,3.9,0,0,0-2.12,1,1.34,1.34,0,0,0,.19,2c1,.46,1.89-.83,3-1C253.94,461,254.51,461.19,255,460.91Zm22.13,34.71a1.13,1.13,0,0,0,.57-.33.78.78,0,0,0,.07-.71,1.44,1.44,0,0,0-1.41-.82,4.15,4.15,0,0,0-1.66.5l-2,.92c-.37.17-.79.4-.85.8a.86.86,0,0,0,.72.87,2.3,2.3,0,0,0,1.21-.16C274.84,496.35,276,496,277.08,495.62Zm3,14.23,4.34-1.82a1,1,0,0,0,.38-.23c.29-.33,0-.9-.39-1.05a2.05,2.05,0,0,0-1.29.08l-2.93.85a2,2,0,0,0-1.37.89A1,1,0,0,0,280.11,509.85Zm9.77,8.44c.58-.22.37-1.19-.21-1.43a2.6,2.6,0,0,0-1.8.22,21.21,21.21,0,0,1-3.51,1c-.41.56.09,1.42.77,1.61a3.29,3.29,0,0,0,2-.31Zm-30.82-64.88,3.5.92c.44.11,1.12.05,1.09-.41a17.21,17.21,0,0,0-6.74-2.77.86.86,0,0,0-.39,0c-.42.15-.26.8.06,1.12A5.34,5.34,0,0,0,259.06,453.41Zm4.4-4.51c.42,1,.83,2,1.24,3a3.14,3.14,0,0,0,1.08,1.57,1.1,1.1,0,0,0,1.62-.42,1.59,1.59,0,0,0-.49-1.33c-1.16-1.49-2.36-2.94-3.59-4.37A1.86,1.86,0,0,0,263.46,448.9Zm-2,1.87a.7.7,0,0,0,.66,0c.21-.18.13-.51,0-.74a4,4,0,0,0-2.49-1.45l-3.82-1.09c-.4-.11-.7.47-.51.84a1.61,1.61,0,0,0,1,.66Zm17,54.7a1.58,1.58,0,0,0-.95.55c-.34.57.16,1.31.76,1.6a8,8,0,0,1,4.81-1.77c.6,0,.65-1,.15-1.33a2.15,2.15,0,0,0-1.72,0ZM272.84,490l-2.46.65c-.76.2-1.7.69-1.52,1.45s1.05.79,1.66.52,1.07-.8,1.67-1.07c1-.46,2.37-.29,2.92-1.23C274.64,489.61,273.63,489.75,272.84,490Zm-30.78-43.43a1,1,0,0,0-.42.29c-.27.35,0,.9.44,1.05a2.15,2.15,0,0,0,1.3-.06,31.4,31.4,0,0,1,4.41-.71c.15-.82-.92-1.28-1.74-1.31A9.23,9.23,0,0,0,242.06,446.53Zm24,31.57c.42-.45.18-1.45-.43-1.33a13.41,13.41,0,0,0-4.56,1.79c-.33.66.57,1.35,1.3,1.24a9.91,9.91,0,0,0,2-.94A4.44,4.44,0,0,0,266.08,478.1Zm.88-14.58a1.74,1.74,0,0,0-.79-.46l-4.23-1.51a1.6,1.6,0,0,0-1.19-.11c-.38.16-.53.79-.16,1a24.51,24.51,0,0,0,5.7,2,.85.85,0,0,0,.61,0A.58.58,0,0,0,267,463.52Zm-6.64-16.59c.2.12.47-.1.47-.34a.91.91,0,0,0-.31-.61c-1.51-1.65-3.74-2.42-5.86-3.13-.54-.18-1.33-.24-1.49.3A80.64,80.64,0,0,1,260.32,446.93Zm31.37,73.33a1.2,1.2,0,0,0-1.06-.77,3.49,3.49,0,0,0-1.35.23l-2.31.7c-.53.17-1.18.49-1.13,1s.56.72,1,.68a4,4,0,0,0,1.26-.5,5.17,5.17,0,0,1,2.88-.45A.73.73,0,0,0,291.69,520.26ZM243.44,449.9a.91.91,0,0,0,.72.89,1.82,1.82,0,0,0,.8-.09l4.49-1.26a1,1,0,0,0-.74-.9,2.93,2.93,0,0,0-1.25,0l-3.27.5A.91.91,0,0,0,243.44,449.9Zm24.73,30a.78.78,0,0,0-.72-.79,2.23,2.23,0,0,0-1.14.27l-3.46,1.5c-.35.43.07,1.13.62,1.25a2.54,2.54,0,0,0,1.59-.37l2.37-1.14C267.75,480.42,268.12,480.21,268.17,479.86Zm-16.53-40a1.37,1.37,0,0,0,.65.48l6.18,2.76c.36.17.9.28,1.08-.08s-.29-.75-.68-.92l-6.65-2.82a.62.62,0,0,0-.35-.08C251.6,439.23,251.51,439.6,251.64,439.84Zm10.67,26.57a.42.42,0,0,0-.22-.05.22.22,0,0,0-.15.16c.18,1.23,1.56,1.84,2.75,2.23l4.64,1.5c.37-.41-.23-1-.74-1.19ZM250.86,452c.17-.32-.09-.73-.42-.9a2.65,2.65,0,0,0-1.88,0l-2.12.59c-.51.14-1.12.4-1.14.93a.85.85,0,0,0,.74.79,2.49,2.49,0,0,0,1.17-.16l3-.9A.93.93,0,0,0,250.86,452Zm35.06,57.34a1.8,1.8,0,0,0-1.42.05l-4.41,1.41c-.33.53.27,1.22.88,1.26a3.46,3.46,0,0,0,1.71-.62,9.14,9.14,0,0,1,3.18-1C286.34,510.35,286.34,509.55,285.92,509.3Zm-28.11-44.67a3.38,3.38,0,0,0-1.45,0l-1.79.33c-.67.13-1.52.48-1.45,1.16a1,1,0,0,0,.84.75,2.72,2.72,0,0,0,1.19-.18l3.55-1.08A1.12,1.12,0,0,0,257.81,464.63Zm-4.05-8a1.32,1.32,0,0,0-1.32-.23c-.45.13-.86.39-1.3.55s-1.09.25-1.6.45a1.61,1.61,0,0,0-1.12,1.13c.2.46.85.41,1.33.28l3.81-1A.7.7,0,0,0,253.76,456.64ZM252,462.85c-.53.16-.44,1,0,1.29a2.14,2.14,0,0,0,1.61,0l3.33-1a1.17,1.17,0,0,0-1-1.18,3.39,3.39,0,0,0-1.66.2Zm6.3-78.06c.7-.51.59-1.56.61-2.43a4.07,4.07,0,0,0-2.7.3c-.78.51-1,1.88-.15,2.29a1.94,1.94,0,0,0,.93.13A2.33,2.33,0,0,0,258.3,384.79Zm1.77,73.9c-.44,0-1.09.15-1,.58.06.21.28.31.49.38a25.67,25.67,0,0,0,6,1.38.44.44,0,0,0,.2-.64,1.19,1.19,0,0,0-.63-.44A19,19,0,0,0,260.07,458.69Zm-9-21.46q2.52,1.29,5.11,2.39a1.42,1.42,0,0,0,1.06.14c.34-.14.47-.7.13-.85l-5.91-2.58c-.31-.14-.75-.24-.92.06S250.74,437.06,251.07,437.23Zm16.56,28.83a2.63,2.63,0,0,0-1-.49l-4.66-1.37a.94.94,0,0,0-.66,0c-.2.1-.27.43-.07.53a31.12,31.12,0,0,0,6.68,2.39A.89.89,0,0,0,267.63,466.06Zm1.22,24,3.32-1.17a2.45,2.45,0,0,0,1.29-.81.89.89,0,0,0-.89-.64,2.54,2.54,0,0,0-1.13.33l-2.92,1.36c-.35.16-.75.4-.75.79C268,490.25,268.47,490.17,268.85,490ZM260,467.88c.26-.29,0-.79-.33-.94a1.86,1.86,0,0,0-1.14.06l-3.81,1c-.24.27,0,.72.3.86a1.76,1.76,0,0,0,1,0l3.44-.77A.88.88,0,0,0,260,467.88Zm15.54,23.82a1.44,1.44,0,0,0-.78.15l-4.07,1.66c-.39.16-.23.83.17,1a1.65,1.65,0,0,0,1.21-.23l3.5-1.69a.76.76,0,0,0,.34-.27C276.07,492.06,275.84,491.76,275.58,491.7Zm-9.95-21.52c-.52-.19-1.28-.29-1.49.22a26.16,26.16,0,0,0,5.8,2.17c.41-.25-.11-.83-.55-1Zm-25.27-25.39a.73.73,0,0,0,.52,1.15,8.63,8.63,0,0,1,4.08-1.37,2.33,2.33,0,0,0-2-.74,6.73,6.73,0,0,0-2.1.64A1.38,1.38,0,0,0,240.36,444.79ZM270,474.56c.4.1,1,0,.93-.41a23.12,23.12,0,0,0-5.2-1.64.69.69,0,0,0,.17.89,2,2,0,0,0,.9.39Zm-1.25,2.08a12.67,12.67,0,0,0,2.86.54.69.69,0,0,0-.16-.87,1.9,1.9,0,0,0-.87-.38l-3-.76C267.29,475.79,268.11,476.43,268.79,476.64ZM290,529.4a1,1,0,0,0,.65,1.38,10.38,10.38,0,0,0,1.84-2.38,1.09,1.09,0,0,0-1.17-.08A2.11,2.11,0,0,0,290,529.4Zm-15.5-45.2a3.91,3.91,0,0,0-1.68-.92,2.23,2.23,0,0,0,1.21,2.2.79.79,0,0,0,.62.07C275.09,485.34,274.84,484.57,274.45,484.2Zm-2.32-5.56a2.39,2.39,0,0,0-1.15-.32l-1.47-.13c-.24.57.44,1.13,1.05,1.22a4.76,4.76,0,0,1,1.82.28A.79.79,0,0,0,272.13,478.64Zm3.8,10.79a1,1,0,0,0,.68.29,3.47,3.47,0,0,0-1.73-3A3.13,3.13,0,0,0,275.93,489.43Zm-3.14-8.12a3.17,3.17,0,0,0-1.89-.36,2.15,2.15,0,0,0,1.45,1.29.89.89,0,0,0,1-.26c.19-.3-.19-.81-.48-.6m-31.9-39.12a2.59,2.59,0,0,0-1.42.77,2.06,2.06,0,0,0,1.94-.48.81.81,0,0,0-.53-.31" transform="translate(0 0)" style="fill:#00160a;fill-rule:evenodd"/><path d="M229.37,495.88c5.5-5.28,13.22-4.54,18.62,1.26,4.69,5,3.58,11.7-1.75,17.29a12.08,12.08,0,0,1-9,3.13c-2.48-.25-6.33-2.07-8.62-3.75-1.06-.78-2-2.38-2.94-4.82l-.13-.36a10.68,10.68,0,0,1,3.15-12.24l.17-.14,0-.05.11-.12.07-.05.07,0,.16-.08ZM238.93,514l-1.66,1.78.18,0a10.6,10.6,0,0,0,4.89-.79l.09,0h-.12a9.32,9.32,0,0,1-3.31-.93Zm-4.85-3.34-.15-.14-.17.16-2,1.93-.76.76.67.46a12.66,12.66,0,0,0,3.37,1.54l.25.07,1.21-1.28.91-1-.06,0A23.49,23.49,0,0,1,234.08,510.68Zm7.93.05-2,2.12.1,0a5.29,5.29,0,0,0,4.1.29l.12,0-.12-.14c-.6-.66-1.24-1.32-1.94-2Zm-11.94-4.48-.35.35c-.51.49-1,1-1.54,1.46l-.81.76.07.16a10.42,10.42,0,0,0,2.31,3.34l0,0,.11-.11c.72-.74,1.47-1.48,2.25-2.24l.6-.59-.16-.16a22.45,22.45,0,0,1-2.33-2.73Zm15.18,1-2.16,2.32,0,0c.83.79,1.59,1.57,2.29,2.35l.22.24h0c.74-1,.62-2.63-.27-4.7Zm-7.57-.31-.16.15c-.74.69-1.49,1.4-2.25,2.14l-.22.21.2.18a23.05,23.05,0,0,0,3.09,2.32l.19.12,1.36-1.44.93-1-.31-.27c-.56-.5-1.16-1-1.93-1.66Zm11.56-4-3,3.21.1.18.48,1,.24.51.22.49a6,6,0,0,1,.46,1.4v.08l.09-.16a10.76,10.76,0,0,0,1.4-6.63Zm-6.58,0-.16-.2-.54.45-1.52,1.26-.28.23c-.28.24-.53.45-.76.66l-.27.24-.28.26.63.52c.7.59,1.31,1.11,1.88,1.61l.54.49,1.74-1.87.83-.89h0A27,27,0,0,0,242.66,503Zm-9.27.19-.13-.13,0,0c-.51.54-1,1.06-1.54,1.59l-.52.52.11.16a18.08,18.08,0,0,0,2.32,2.76l.23.22,0,0,.07-.07,1.61-1.53.9-.84-.12-.1C235.31,505,234.34,504.06,233.39,503.15Zm-5.53-3.4-.05.08a9.69,9.69,0,0,0-1,7.1l0,.21,0,.1.25-.24c.54-.51,1.08-1,1.61-1.54l.54-.54-.05-.09a10.37,10.37,0,0,1-1.34-5Zm9.78-1.55-.64.74q-1.09,1.24-2.22,2.46l-.44.47.11.11c.87.84,1.78,1.67,2.72,2.47l.44.38.42-.39.88-.77.54-.45,1.25-1,.62-.51.19-.16-.09-.1a16.84,16.84,0,0,0-1.18-1.25l-.1-.09a17.42,17.42,0,0,0-2.26-1.72Zm9.07-.09-.06.12a15.58,15.58,0,0,1-3,3.47l-.11.1,0,.06c.57.8,1.1,1.63,1.61,2.5l.19.32,1.45-1.57,1.85-2,0-.1a9.07,9.07,0,0,0-1.89-2.82Zm-17.22.89v.07a8.8,8.8,0,0,0,.89,4.68l0,0,.19-.19c.43-.44.86-.87,1.28-1.32l.33-.34-.14-.13c-.74-.77-1.47-1.56-2.2-2.39Zm.72-1.75-.11.05,0,0q1.47,1.76,3,3.35l.1.11.44-.46c.76-.83,1.51-1.66,2.25-2.51l.36-.41,0,0-.56-.3-.3-.15c-1.71-.84-3-.75-5,.22Zm10.72-3-.63.78L239,496.59l-.3.36.07.05a14.33,14.33,0,0,1,2.93,2.44l.19.2.52.63.2.25,0,0a13.41,13.41,0,0,0,2.81-3.45v0l-.16-.13a15.81,15.81,0,0,0-4.16-2.56Zm-2.54-.45a10.91,10.91,0,0,0-4.47.87l-.08,0,.13,0a4,4,0,0,1,.89.23l.14.05c.78.35,1.49.69,2.16,1l.22.12.44-.51,1.32-1.61.16-.19-.19,0-.48,0Z" transform="translate(0 0)" style="fill:#ffb61d;fill-rule:evenodd"/><path d="M266.05,382.41a2.86,2.86,0,0,1,3.73-1.39,4.48,4.48,0,0,1,2.43,3.5,10.44,10.44,0,0,1-.53,4.39,32.87,32.87,0,0,1-1.38,3.82c-.05.11-.12.24-.24.27s-.25-.07-.34-.17a13.46,13.46,0,0,1-3.85-8.89A3.93,3.93,0,0,1,266.05,382.41Zm4,.34a2,2,0,0,0-1.38-.52,2.34,2.34,0,0,0-2,2.48A6.84,6.84,0,0,0,268,388l1.3,2.15c.15.25.44.53.67.35a.49.49,0,0,0,.16-.29c.18-.66.35-1.31.53-2a10.27,10.27,0,0,0,.49-2.85A3.48,3.48,0,0,0,270.06,382.75Z" transform="translate(0 0)" style="fill:#ffb61d;fill-rule:evenodd"/><path d="M269.29,386.5a1.37,1.37,0,0,1-.87,0,1.43,1.43,0,0,1-.87-1.36,1.41,1.41,0,0,1,1-1.25,1.43,1.43,0,0,1,1.73,1.41A1.39,1.39,0,0,1,269.29,386.5Z" transform="translate(0 0)" style="fill:#ffb61d;fill-rule:evenodd"/><path d="M86.51,77.54V81.1H77.39V111H73V81.1H63.86V77.54Zm23,33.46-8-13.68H96.26V111H91.89V77.54h10.8a14.19,14.19,0,0,1,6.38,1.3,9,9,0,0,1,3.94,3.5,10.31,10.31,0,0,1-.72,11.14,9.58,9.58,0,0,1-6,3.5l8.4,14ZM96.26,93.82h6.43A7.38,7.38,0,0,0,108,92.09a6.38,6.38,0,0,0,1.77-4.71,5.93,5.93,0,0,0-1.77-4.6q-1.72-1.64-5.33-1.64H96.26Zm44.61,9.74H126.28L123.59,111H119l12.1-33.26h5l12,33.26h-4.61ZM139.62,100l-6.05-16.9-6,16.9Zm41.47-22.47L168.46,111h-5L150.8,77.54h4.65L166,106.39l10.51-28.85Zm9.15,3.56V92.28h12.2v3.6h-12.2V107.4h13.64V111h-18V77.5h18v3.6Zm24.61,26.35h11.72V111H210.49V77.54h4.36Zm20.72,0h11.71V111H231.2V77.54h4.37Zm20.72-29.91V111h-4.37V77.54Zm22.61,33.8a17,17,0,0,1-8.49-2.16,16.53,16.53,0,0,1-6.1-6.1,17.75,17.75,0,0,1-2.21-8.83,17.52,17.52,0,0,1,2.21-8.79,16,16,0,0,1,6.1-6.09,17.53,17.53,0,0,1,17,0,15.61,15.61,0,0,1,6,6,18.75,18.75,0,0,1,0,17.66,16.08,16.08,0,0,1-6,6.1A17.14,17.14,0,0,1,278.9,111.34Zm0-3.8a12.19,12.19,0,0,0,6.29-1.63,11.34,11.34,0,0,0,4.42-4.65,14.54,14.54,0,0,0,1.63-7,14.32,14.32,0,0,0-1.63-7,11.38,11.38,0,0,0-4.37-4.66,13.13,13.13,0,0,0-12.67,0,11.69,11.69,0,0,0-4.42,4.66,14.77,14.77,0,0,0-1.58,7,15,15,0,0,0,1.58,7,11.73,11.73,0,0,0,4.42,4.65A12.41,12.41,0,0,0,278.9,107.54Z" transform="translate(0 0)"/></g></svg>