<svg width="360" height="800" viewBox="0 0 360 800" fill="none" xmlns="http://www.w3.org/2000/svg">
<rect width="360" height="800" fill="#363636"/>
<g clip-path="url(#clip0_0_1)">
<rect width="360" height="800" fill="white"/>
<rect width="360" height="91" fill="#64FCD9"/>
<g filter="url(#filter0_d_0_1)">
<path fill-rule="evenodd" clip-rule="evenodd" d="M0 169L12 164.667C24 160.333 48 151.667 72 160.333C96 169 120 195 144 195C168 195 192 169 216 169C240 169 264 195 288 195C312 195 336 169 348 156L360 143V91H348C336 91 312 91 288 91C264 91 240 91 216 91C192 91 168 91 144 91C120 91 96 91 72 91C48 91 24 91 12 91H0V169Z" fill="#64FCD9"/>
</g>
<path d="M355 252H5V602H355V252Z" fill="white"/>
<g filter="url(#filter1_d_0_1)">
<path fill-rule="evenodd" clip-rule="evenodd" d="M73.3531 505.296C31.4662 476.238 81.6323 437.731 69.3776 391.688C57.1234 345.644 27.4389 276.992 144.547 301.454C263.202 326.24 338.457 358.155 320.672 457.014C302.887 555.873 115.24 534.355 73.3531 505.296Z" fill="#64FCD9"/>
</g>
<path fill-rule="evenodd" clip-rule="evenodd" d="M255.16 545.1C252.533 542.481 251.289 538.82 250.128 535.298C247.087 539.701 240.298 539.843 235.636 537.215C230.974 534.588 227.827 529.999 224.479 525.824C218.486 518.348 192.81 499.886 192.389 494.316C192.165 491.362 200.755 485.984 200.755 485.984L185.318 476.902C185.318 476.902 177.312 483.043 172.709 483.773C159.903 485.804 150.845 484.595 150.834 486.9C150.795 495.239 201.25 537.547 185.16 537.215C161.014 536.718 116.911 489.719 102.625 485.984C96.6426 484.42 55.6086 486.9 55.6086 476.968C55.6086 463.628 92.2601 454.449 92.2601 454.449C92.2601 454.449 82.708 422.237 94.2696 395.896C96.9175 389.863 100.196 382.853 100.515 376.926C100.603 375.3 146.826 331.517 152.764 329.329C166.61 324.23 181.337 321.534 196.092 321.4C198.059 321.383 254.14 329.329 279.359 370.956C283.916 378.479 304.62 434.345 283.6 469.39C280.283 474.919 280.69 481.781 282.983 487.868C285.275 493.955 288.094 500.725 285.496 506.688C284.077 497.134 281.586 487.74 278.083 478.74C273.198 482.291 275.671 489.932 278.583 495.223C282.253 501.89 285.923 508.557 289.593 515.225C291.119 517.998 292.697 521.053 292.148 524.17C291.52 527.735 288.344 530.201 285.402 532.308C278.686 537.122 271.969 541.935 265.252 546.748C262.238 548.908 257.786 547.719 255.16 545.1Z" fill="white"/>
<path fill-rule="evenodd" clip-rule="evenodd" d="M164.428 397.572C164.943 396.18 166.795 395.605 168.161 396.185C169.527 396.766 170.376 398.217 170.589 399.685C170.803 401.155 170.479 402.647 170.061 404.072C169.679 405.37 169.219 406.646 168.683 407.889C168.633 408.005 168.567 408.134 168.444 408.162C168.313 408.191 168.193 408.089 168.099 407.994C165.777 405.642 164.377 402.402 164.256 399.1C164.237 398.585 164.25 398.056 164.428 397.572ZM168.442 397.913C168.061 397.586 167.569 397.372 167.068 397.387C165.897 397.423 165.08 398.7 165.106 399.871C165.132 401.042 165.756 402.105 166.361 403.108C166.795 403.826 167.228 404.544 167.662 405.262C167.81 405.507 168.101 405.786 168.331 405.616C168.423 405.548 168.459 405.428 168.49 405.317C168.667 404.665 168.845 404.012 169.022 403.36C169.276 402.427 169.532 401.479 169.516 400.513C169.5 399.546 169.176 398.542 168.442 397.913Z" fill="#FFB61D"/>
<path fill-rule="evenodd" clip-rule="evenodd" d="M167.676 401.661C167.391 401.741 167.079 401.726 166.803 401.618C166.268 401.41 165.898 400.836 165.929 400.262C165.96 399.687 166.39 399.157 166.945 399.007C167.786 398.78 168.733 399.555 168.677 400.424C168.64 400.988 168.22 401.508 167.676 401.661Z" fill="#FFB61D"/>
<path fill-rule="evenodd" clip-rule="evenodd" d="M183.004 538.155C183.965 538.281 183.611 539.772 182.987 540.514C177.036 547.599 169.265 553.144 160.629 556.467C158.692 557.212 156.689 557.852 154.618 557.995C150.779 558.259 146.955 556.76 143.919 554.395C140.883 552.03 138.569 548.852 136.684 545.497C131.529 536.323 129.367 525.497 130.605 515.046C130.721 514.063 131.392 512.758 132.298 513.157C132.036 516.651 131.995 520.162 132.177 523.661C132.355 527.098 132.751 530.544 133.738 533.841C134.652 536.894 136.058 539.774 137.524 542.603C139.03 545.511 140.627 548.411 142.803 550.859C144.979 553.307 147.803 555.296 151.016 555.931C155.045 556.727 159.179 555.339 162.893 553.588C170.595 549.957 177.504 544.655 183.004 538.155Z" fill="#00160A"/>
<path fill-rule="evenodd" clip-rule="evenodd" d="M210.87 498.334C217.865 491.452 224.86 484.57 231.854 477.688C232.246 477.303 232.826 476.892 233.289 477.187C233.907 477.582 233.412 478.53 232.892 479.045C225.363 486.491 217.835 493.936 210.306 501.382C209.764 501.107 209.606 500.365 209.797 499.787C209.988 499.21 210.436 498.76 210.87 498.334Z" fill="#00160A"/>
<path fill-rule="evenodd" clip-rule="evenodd" d="M157.321 458.754C156.895 458.828 156.469 458.902 156.042 458.976C155.214 457.733 154.367 456.444 154.108 454.975C153.848 453.505 154.334 451.794 155.639 451.069C157.115 450.248 157.56 448.231 157.09 446.608C156.62 444.986 155.455 443.672 154.313 442.427C153.155 441.162 151.296 439.82 149.92 440.844C149.023 441.512 147.68 441.134 146.877 440.356C146.075 439.578 145.65 438.502 145.131 437.512C144.148 435.638 142.716 433.948 140.842 432.965C138.969 431.983 136.624 431.788 134.738 432.747C132.867 433.698 131.687 435.59 130.092 436.955C128.498 438.319 125.864 439.044 124.427 437.514C124.062 437.125 123.817 436.548 124.025 436.057C124.232 435.565 125.038 435.396 125.296 435.863C125.952 437.055 127.764 437.038 128.897 436.286C130.031 435.534 130.74 434.306 131.67 433.313C133.488 431.372 136.253 430.361 138.895 430.672C141.536 430.983 143.991 432.606 145.31 434.916C145.946 436.029 146.338 437.295 147.168 438.271C147.998 439.248 149.506 439.846 150.571 439.133C151.773 438.327 153.342 439.328 154.397 440.32C155.826 441.661 157.217 443.111 158.021 444.897C158.826 446.684 158.953 448.882 157.902 450.535C157.027 451.912 155.353 453.026 155.498 454.651C155.633 456.166 157.376 457.234 157.321 458.754Z" fill="#00160A"/>
<path fill-rule="evenodd" clip-rule="evenodd" d="M175.786 390.543C178.347 391.742 180.625 393.66 181.942 396.162C183.258 398.664 183.526 401.772 182.346 404.342C179.904 409.657 172.14 411.726 171.284 417.513C171.066 418.986 171.363 420.519 170.999 421.963C170.747 422.961 170.196 423.853 169.755 424.783C168.808 426.779 168.362 429.009 168.466 431.216C167.479 431.75 166.319 430.612 166.193 429.497C166.067 428.382 166.513 427.275 166.489 426.153C166.444 424.045 164.813 422.366 163.421 420.781C161.334 418.403 159.521 415.604 159.182 412.458C159.072 411.445 159.118 410.411 158.891 409.417C158.645 408.349 158.096 407.38 157.611 406.397C156.302 403.746 155.416 400.686 156.222 397.84C157.028 394.996 160.032 392.642 162.883 393.425C163.693 393.647 164.485 394.102 165.316 393.978C166.775 393.76 167.364 392.02 168.381 390.951C170.204 389.036 173.391 389.422 175.786 390.543ZM163.386 418.189C165.003 420.316 166.62 422.444 168.237 424.571C170.091 422.618 169.324 419.46 169.888 416.826C170.656 413.239 173.865 410.804 176.645 408.41C179.425 406.017 182.185 402.742 181.561 399.127C181.059 396.222 178.524 394.158 176.094 392.49C174.724 391.55 173.142 390.604 171.508 390.906C169.856 391.212 168.723 392.677 167.533 393.863C166.343 395.049 164.547 396.079 163.057 395.302C160.96 394.208 158.291 396.074 157.699 398.363C157.108 400.653 157.958 403.048 158.892 405.221C159.826 407.393 160.88 409.646 160.702 412.004C160.53 414.298 161.994 416.358 163.386 418.189Z" fill="#00160A"/>
<path fill-rule="evenodd" clip-rule="evenodd" d="M34.4143 369.327C34.3094 369.043 34.808 368.963 35.0753 369.106C35.0638 369.402 34.6091 369.551 34.4243 369.32L34.4143 369.327Z" fill="#00160A"/>
<path fill-rule="evenodd" clip-rule="evenodd" d="M228.344 485.826C228.893 485.902 229.184 486.578 229.06 487.118C228.935 487.658 228.528 488.081 228.139 488.475C224.988 491.66 221.836 494.845 218.685 498.03C218.452 498.266 218.179 498.518 217.848 498.507C217.403 498.493 217.113 497.979 217.167 497.538C217.221 497.096 217.512 496.725 217.793 496.38C220.691 492.835 223.835 489.491 227.196 486.382C227.519 486.083 227.908 485.765 228.344 485.826Z" fill="#00160A"/>
<path fill-rule="evenodd" clip-rule="evenodd" d="M135.688 439.762C137.424 439.92 138.759 441.551 139.057 443.269C139.355 444.987 138.819 446.743 138.093 448.328C137.693 449.201 137.233 450.046 136.718 450.857C136.347 451.44 135.875 452.053 135.193 452.166C134.055 452.355 133.255 451.102 132.816 450.035C132.198 448.533 131.631 447.011 131.116 445.471C130.863 444.715 130.62 443.918 130.749 443.132C130.946 441.929 131.969 441.029 133.04 440.447C133.853 440.006 134.766 439.679 135.688 439.762ZM134.057 448.607C134.19 448.815 134.332 449.028 134.541 449.16C134.711 449.267 134.921 449.313 135.122 449.285C135.638 449.213 135.97 448.716 136.234 448.266C136.924 447.09 137.633 445.855 137.71 444.493C137.788 443.13 137.014 441.615 135.679 441.334C134.117 441.006 132.661 442.571 132.529 444.162C132.396 445.752 133.195 447.264 134.057 448.607Z" fill="#FFB61D"/>
<path fill-rule="evenodd" clip-rule="evenodd" d="M135.613 442.99C136.041 443.128 136.411 443.442 136.618 443.841C136.803 444.197 136.858 444.618 136.772 445.01C136.574 445.914 135.552 446.545 134.654 446.318C133.757 446.09 133.159 445.048 133.415 444.159C133.672 443.27 134.732 442.706 135.613 442.99ZM135.414 444.867C135.741 444.695 135.449 444.069 135.107 444.208C134.842 444.243 134.667 444.576 134.788 444.815C134.909 445.053 135.282 445.108 135.466 444.915L135.414 444.867Z" fill="#FFB61D"/>
<path fill-rule="evenodd" clip-rule="evenodd" d="M227.501 460.103C226.533 459.058 225.663 457.922 224.906 456.715C224.664 456.33 225.165 455.827 225.617 455.887C226.068 455.947 226.4 456.326 226.688 456.679C227.691 457.909 228.694 459.139 229.697 460.369C229.581 460.808 229.027 461.006 228.589 460.89C228.15 460.774 227.809 460.436 227.501 460.103Z" fill="#00160A"/>
<path fill-rule="evenodd" clip-rule="evenodd" d="M260.544 517.097C260.556 517.241 260.503 517.381 260.448 517.514C259.897 518.855 259.077 520.085 258.051 521.109C256.419 522.739 254.207 523.946 253.333 526.08C253.127 526.586 252.354 526.659 251.953 526.288C251.552 525.917 251.497 525.282 251.674 524.765C251.852 524.249 252.219 523.823 252.578 523.411C253.748 522.07 254.918 520.729 256.088 519.387C256.985 518.359 257.92 517.301 259.163 516.737C259.674 516.506 260.501 516.538 260.544 517.097Z" fill="#00160A"/>
<path fill-rule="evenodd" clip-rule="evenodd" d="M228.693 454.518C229.848 455.875 231.002 457.232 232.157 458.588C232.351 458.816 232.556 459.075 232.543 459.374C232.523 459.839 231.952 460.116 231.499 460.008C231.047 459.9 230.705 459.538 230.401 459.186C229.423 458.051 228.547 456.828 227.787 455.537C227.49 455.034 227.375 454.153 227.954 454.078C228.251 454.04 228.499 454.29 228.693 454.518Z" fill="#00160A"/>
<path fill-rule="evenodd" clip-rule="evenodd" d="M215.394 462.08C215.218 461.833 215.037 461.512 215.186 461.248C215.431 460.812 216.096 461.15 216.428 461.524C217.601 462.847 218.599 464.325 219.389 465.907C218.637 466.288 217.837 465.513 217.348 464.826C216.697 463.911 216.045 462.995 215.394 462.08Z" fill="#00160A"/>
<path fill-rule="evenodd" clip-rule="evenodd" d="M216.435 465.976C216.904 466.465 217.38 467.268 216.89 467.737C216.393 468.214 215.596 467.676 215.156 467.145C214.092 465.86 213.167 464.461 212.402 462.979C212.893 462.557 213.621 463.048 214.069 463.514C214.858 464.335 215.646 465.156 216.435 465.976Z" fill="#00160A"/>
<path fill-rule="evenodd" clip-rule="evenodd" d="M217.715 461.166C217.502 460.853 217.303 460.424 217.533 460.124C217.862 459.696 218.531 460.089 218.899 460.484C219.967 461.629 221.036 462.774 222.104 463.919C222.056 464.333 221.571 464.581 221.159 464.52C220.747 464.458 220.404 464.181 220.095 463.901C219.197 463.088 218.396 462.168 217.715 461.166Z" fill="#00160A"/>
<path fill-rule="evenodd" clip-rule="evenodd" d="M224.45 458.626C225.115 459.475 225.78 460.324 226.446 461.173C226.71 461.509 226.988 461.941 226.816 462.333C226.65 462.71 226.126 462.809 225.747 462.647C225.368 462.485 225.103 462.142 224.856 461.812C224.161 460.885 223.473 459.953 222.792 459.017C222.641 458.81 222.484 458.578 222.507 458.323C222.545 457.898 223.088 457.678 223.494 457.808C223.9 457.938 224.187 458.29 224.45 458.626Z" fill="#00160A"/>
<path fill-rule="evenodd" clip-rule="evenodd" d="M223.949 462.54C224.087 462.691 224.234 462.866 224.219 463.069C224.199 463.34 223.881 463.509 223.612 463.468C223.344 463.428 223.121 463.244 222.919 463.062C221.591 461.868 220.472 460.443 219.627 458.87C219.793 458.437 220.447 458.731 220.76 459.072C221.823 460.228 222.886 461.384 223.949 462.54Z" fill="#00160A"/>
<path fill-rule="evenodd" clip-rule="evenodd" d="M236.844 454.887C236.947 455.006 237.057 455.142 237.05 455.3C237.041 455.538 236.757 455.687 236.523 455.647C236.287 455.607 236.098 455.439 235.923 455.278C234.672 454.122 233.477 452.908 232.34 451.641C232.742 451.101 233.591 451.534 234.078 451.997C235.045 452.916 235.968 453.881 236.844 454.887Z" fill="#00160A"/>
<path fill-rule="evenodd" clip-rule="evenodd" d="M232.883 456.04C232.184 455.083 231.485 454.125 230.785 453.168C230.657 452.992 230.522 452.779 230.591 452.572C230.727 452.167 231.343 452.347 231.674 452.618C232.725 453.476 233.618 454.528 234.293 455.705C234.424 455.933 234.55 456.204 234.457 456.45C234.339 456.764 233.909 456.856 233.601 456.725C233.293 456.594 233.081 456.311 232.883 456.04Z" fill="#00160A"/>
<path fill-rule="evenodd" clip-rule="evenodd" d="M238.462 452.522C237.771 451.779 237.08 451.036 236.39 450.294C236.144 450.029 236.441 449.56 236.801 449.521C237.16 449.483 237.489 449.709 237.773 449.932C238.297 450.341 238.802 450.774 239.287 451.229C239.555 451.481 239.827 451.757 239.928 452.11C240.029 452.464 239.891 452.913 239.543 453.033C239.143 453.171 238.75 452.831 238.462 452.522Z" fill="#00160A"/>
<path fill-rule="evenodd" clip-rule="evenodd" d="M237.121 453.992C236.166 453.011 235.25 451.991 234.378 450.936C234.226 450.752 234.066 450.526 234.13 450.296C234.204 450.037 234.543 449.936 234.797 450.023C235.052 450.109 235.239 450.324 235.412 450.529C236.211 451.475 237.01 452.42 237.809 453.366C238.025 453.621 238.238 454.024 237.993 454.251C237.745 454.481 237.357 454.233 237.121 453.992Z" fill="#00160A"/>
<path fill-rule="evenodd" clip-rule="evenodd" d="M282.591 514.588C283.67 514.255 286.402 513.514 287.481 513.182C287.964 513.032 288.683 513.013 288.773 513.511C288.849 513.921 288.377 514.199 287.982 514.332C286.893 514.698 284.113 515.361 282.972 515.499C282.566 515.548 281.976 515.396 282.058 514.996C282.105 514.765 282.366 514.658 282.591 514.588Z" fill="#00160A"/>
<path fill-rule="evenodd" clip-rule="evenodd" d="M162.044 469.469C163.752 469.494 165.771 469.891 166.453 471.457C167.092 472.929 166.086 474.698 164.675 475.461C163.264 476.225 161.583 476.244 159.979 476.242C138.087 476.214 116.197 475.685 94.3293 474.657C92.9667 474.593 92.8379 472.627 93.1491 471.299C93.3349 470.506 93.5439 469.671 94.1156 469.091C94.9383 468.257 96.2431 468.2 97.4145 468.196C113.135 468.146 128.883 468.096 144.537 469.543C147.016 469.772 149.499 470.038 151.988 470.015C155.346 469.982 158.686 469.42 162.044 469.469ZM164.495 473.443C164.862 472.727 164.322 471.816 163.588 471.487C162.854 471.159 162.01 471.244 161.21 471.323C150.948 472.332 140.616 471.167 130.322 470.566C122.84 470.128 115.344 469.989 107.851 469.85C104.727 469.792 101.603 469.734 98.4789 469.676C97.4826 469.658 96.3906 469.671 95.6253 470.309C94.8595 470.947 94.8338 472.451 95.7839 472.752C95.9557 472.807 96.1381 472.815 96.3183 472.824C118.311 473.894 140.333 474.374 162.352 474.263C163.159 474.259 164.127 474.161 164.495 473.443Z" fill="#00160A"/>
<path fill-rule="evenodd" clip-rule="evenodd" d="M148.068 487.164C150.02 491.437 154.226 494.6 158.873 495.291C161.059 495.616 162.552 497.605 163.797 499.431C165.091 501.33 166.041 504.547 163.901 505.385C172.204 514.541 180.506 523.696 188.809 532.851C189.773 533.915 190.71 535.69 189.592 536.591C189.177 536.925 188.607 536.977 188.074 536.995C181.234 537.224 174.78 534.023 168.86 530.588C160.336 525.641 152.194 520.036 144.532 513.836C138.934 509.307 130.892 508.012 124.155 510.554C120.661 511.872 116.279 509.184 115.871 505.471C115.463 501.758 119.156 498.183 122.854 498.711C117.295 490.462 107.352 485.364 97.4084 485.665C85.4076 486.027 73.3583 484.768 61.6916 481.932C60.6668 481.683 59.5664 481.372 58.9238 480.536C57.6419 478.869 58.9863 476.499 60.3952 474.937C70.7743 463.435 86.7441 457.23 102.167 458.707C102.824 458.77 103.181 457.972 103.335 457.33C107.256 440.992 111.176 424.653 115.096 408.315C115.569 406.345 118.568 406.072 120.053 407.449C121.539 408.827 121.866 411.023 122.037 413.042C123.314 428.091 121.084 444.293 128.565 457.413C128.914 458.024 129.307 458.65 129.92 458.997C130.523 459.339 131.249 459.36 131.942 459.372C145.794 459.618 159.645 459.863 173.497 460.109C175.223 460.139 177.342 459.934 178.039 458.355C179.825 454.308 181.612 450.262 183.399 446.216C183.967 444.929 184.751 443.468 186.142 443.256C188.134 442.953 189.395 445.455 189.331 447.469C189.266 449.484 188.589 451.624 189.476 453.434C192.73 449.975 196.04 446.472 200.109 444.023C204.178 441.574 209.176 440.273 213.739 441.589C209.705 448.003 205.671 454.418 201.637 460.831C205.006 463.061 205.272 468.699 202.127 471.236C200.784 472.319 201.85 474.456 202.962 475.775C206.447 479.905 209.932 484.036 213.417 488.167C210.442 489.546 206.978 488.126 204.053 486.644C198.826 483.996 193.724 481.102 188.769 477.974C186.364 476.456 183.714 479.302 181.531 481.124C178.067 484.018 173.283 484.594 168.793 485.052C161.884 485.756 154.976 486.46 148.068 487.164ZM160.118 478.185C164.362 478.417 168.687 478.711 172.804 477.659C177.021 476.582 180.859 474.074 183.538 470.645C184.188 469.812 185.328 469.576 186.37 469.397C189.965 468.778 193.752 468.174 197.187 469.404C198.736 469.959 200.627 469.323 201.527 467.945C202.428 466.567 202.249 464.581 201.119 463.385C199.894 463.351 199.671 465.088 199.022 466.126C198.169 467.49 196.309 467.712 194.702 467.793C188.808 468.089 182.914 468.385 177.019 468.682C175.589 468.754 173.617 468.337 173.66 466.905C173.679 466.275 174.14 465.755 174.59 465.314C176.173 463.769 177.979 462.454 179.936 461.422C156.003 461.604 132.066 461.335 108.144 460.615C96.3799 460.262 83.8354 459.994 73.8119 466.161C72.8762 466.737 72.1445 468.434 73.2299 468.602C76.4275 469.095 79.6251 469.588 82.8227 470.082C83.2035 470.141 83.6109 470.212 83.8867 470.482C84.7127 471.289 83.5554 472.586 82.4909 473.035C78.0982 474.884 72.8645 474.602 68.6963 472.291C67.7517 471.767 66.6308 471.131 65.6685 471.621C64.5061 472.213 64.6657 474.082 65.6517 474.936C66.6383 475.791 68.0429 475.911 69.3449 475.992C81.0443 476.714 92.7436 477.435 104.442 478.157C107.731 478.36 111.03 478.563 114.318 478.358C129.564 477.408 144.866 477.35 160.118 478.185ZM177.196 523.539C173.101 517.905 168.437 512.686 163.298 507.985C161.615 506.447 160.133 504.705 158.655 502.968C152.195 495.373 145.735 487.779 139.275 480.185C138.63 479.426 137.516 479.327 136.521 479.295C128.036 479.026 119.524 479.657 111.171 481.173C110.554 481.285 109.888 481.429 109.48 481.907C108.534 483.013 109.716 484.63 110.824 485.573C121.914 495.016 133.412 503.98 145.274 512.432C147.457 513.987 149.673 515.537 152.138 516.59C156.789 518.576 161.441 520.562 166.091 522.548C169.65 524.068 173.892 525.554 177.196 523.539ZM121.653 439.691C121.482 437.472 121.481 435.215 120.871 433.075C119.773 429.22 116.844 426.193 113.929 423.442C113.703 423.228 113.404 422.999 113.112 423.106C112.846 423.203 112.75 423.521 112.689 423.798C110.517 433.692 108.344 443.587 106.171 453.482C105.761 455.35 105.349 457.243 105.437 459.153C113.055 459.249 120.672 459.345 128.29 459.441C124.495 453.539 122.192 446.687 121.653 439.691ZM211.156 442.977C206.425 442.572 201.551 444.311 198.144 447.62C191.905 453.68 185.241 459.305 178.219 464.438C177.257 465.141 176.227 465.92 175.901 467.065C181.785 466.8 187.668 466.534 193.551 466.269C195.102 466.199 196.929 465.966 197.671 464.602C201.73 457.134 206.236 449.908 211.156 442.977ZM60.1493 478.009C59.9892 478.352 59.8469 478.734 59.936 479.102C60.0933 479.752 60.853 480.023 61.5035 480.181C74.6575 483.372 88.3042 483.784 101.834 484.179C103.181 484.219 104.577 484.249 105.814 483.714C107.05 483.18 108.077 481.908 107.876 480.577C99.0814 479.358 90.2045 478.733 81.3257 478.709C76.0066 478.694 70.5363 478.87 65.55 477.019C64.3469 476.573 62.9857 475.678 63.1387 474.404C61.8577 475.325 60.818 476.58 60.1493 478.009ZM185.582 475.634C185.11 474.61 183.78 474.231 182.677 474.467C181.575 474.704 180.639 475.402 179.714 476.048C177.58 477.538 175.273 478.852 172.74 479.452C170.532 479.976 168.235 479.938 165.966 479.898C157.684 479.752 149.402 479.605 141.119 479.458C142.963 482.21 145.491 485.302 148.785 484.94C155.227 484.233 161.753 484.401 168.165 483.456C174.576 482.509 181.073 480.289 185.582 475.634ZM204.744 482.719C205.046 482.678 205.397 482.577 205.492 482.288C205.571 482.046 205.426 481.792 205.284 481.579C202.899 477.99 199.961 474.807 197.036 471.642C196.59 471.159 196.125 470.662 195.519 470.407C194.891 470.143 194.184 470.169 193.506 470.219C190.732 470.427 187.985 470.993 185.354 471.898C185.139 471.972 184.889 472.091 184.865 472.317C184.846 472.492 184.977 472.645 185.101 472.771C187.865 475.58 191.323 477.588 194.735 479.561C197.823 481.346 201.21 483.195 204.744 482.719ZM126.093 500.768C125.835 500.569 125.561 500.362 125.237 500.32C124.975 500.286 124.713 500.366 124.46 500.444C123.875 500.626 123.291 500.807 122.706 500.988C122.133 501.166 121.418 501.693 121.748 502.194C122.779 503.755 123.198 505.708 122.896 507.555C122.799 508.154 123.66 508.368 124.266 508.325C127.395 508.104 130.524 507.883 133.653 507.662C133.98 507.639 134.42 507.474 134.344 507.156C131.594 505.027 128.843 502.897 126.093 500.768ZM179.712 458.448C179.492 459.023 180.078 459.648 180.69 459.711C181.302 459.774 181.885 459.465 182.423 459.166C184.362 458.087 186.453 456.833 187.185 454.738C187.424 454.056 187.498 453.328 187.57 452.609C187.693 451.374 187.817 450.14 187.94 448.905C187.967 448.631 187.99 448.334 187.845 448.1C187.7 447.866 187.315 447.771 187.154 447.994C186.503 448.898 185.548 449.578 184.481 449.897C184.02 450.036 183.524 450.115 183.136 450.4C182.673 450.738 182.445 451.304 182.24 451.839C181.397 454.042 180.554 456.245 179.712 458.448ZM160.43 498.013C159.586 496.437 157.258 495.908 155.815 496.963C157.675 498.417 158.725 500.66 160.304 502.416C160.847 503.02 161.554 503.604 162.365 503.551C163.176 503.497 163.846 502.414 163.271 501.839C162.144 500.711 161.184 499.418 160.43 498.013ZM119.063 502.31C117.807 503.537 118.235 505.613 118.753 507.29C118.928 507.856 119.485 508.559 119.947 508.189C120.104 508.064 120.16 507.854 120.207 507.658C120.439 506.695 120.673 505.709 120.569 504.723C120.465 503.737 119.958 502.736 119.063 502.31Z" fill="#00160A"/>
<path fill-rule="evenodd" clip-rule="evenodd" d="M257.959 547.434C255.333 544.815 254.089 541.154 252.928 537.631C249.887 542.035 245.942 545.161 241.28 542.534C236.618 539.906 230.627 532.333 227.279 528.157C221.286 520.681 214.165 514.11 206.233 508.734C210.469 513.382 213.003 519.549 213.257 525.832C216.47 525.799 219.683 525.765 222.897 525.732C212.093 529.413 200.519 530.817 189.149 529.823C195.327 524.627 200.159 517.843 203.049 510.306C202.404 508.266 199.339 508.739 197.55 509.91C195.76 511.082 193.445 512.569 191.721 511.302C189.599 509.744 189.745 504.861 187.225 505.624C180.683 507.607 172.927 503.669 170.667 497.217C169.124 498.182 167.581 499.146 166.038 500.111C165.295 497.721 168.735 495.874 171.054 496.817C173.372 497.759 174.731 500.104 176.339 502.023C177.947 503.941 180.527 505.634 182.821 504.635C187.098 502.772 192.722 506.136 193.104 510.784C196.42 508.123 200.968 507.068 205.116 507.998C202.47 504.164 199.516 500.542 196.293 497.179C198.744 493.913 201.773 491.085 205.199 488.864C203.518 492.042 201.187 494.875 198.393 497.138C212.724 511.187 227.054 525.237 241.385 539.287C242.287 540.171 243.321 541.114 244.584 541.131C245.968 541.15 247.085 540.06 248.028 539.047C254.754 531.829 261.48 524.612 268.206 517.394C269.958 515.514 271.802 513.441 272.065 510.884C272.395 507.673 270.153 504.825 268.013 502.409C259.401 492.686 250.238 483.452 240.582 474.764C236.347 470.954 230.764 466.992 225.437 469.009C219.008 471.444 217.478 481.118 210.875 483.029C212.85 480.316 214.824 477.602 216.798 474.888C212.884 472.057 207.988 465.737 207.733 460.913C210.875 458.05 214.749 455.882 217.962 454.221C214.749 446.655 215.131 445.082 219.428 444.049C223.725 443.016 227.448 441.992 231.397 440.671C242.346 437.009 247.571 419.647 238.381 412.436C233.326 408.469 195.433 369.526 179.164 355.168C180.396 360.663 173.156 365.845 168.352 362.906C169.274 366.073 167.058 369.907 163.786 370.325C160.513 370.743 157.32 367.114 158.466 364.02C159.452 361.357 162.607 360.255 164.439 358.085C166.27 355.916 164.672 351.147 162.183 352.513C160.868 357.805 153.129 360.059 149.178 356.302C147.786 354.979 145.964 354.654 144.101 354.966C141.819 355.349 137.87 356.235 136.182 357.872C133.537 360.436 132.94 364.182 129.79 365.922C129.289 366.199 128.762 366.437 128.207 366.627C124.164 368.004 118.504 364.004 120.603 360.284C109.099 370.89 101.203 385.34 98.4882 400.749C104.492 402.461 105.632 410.346 105.615 416.589C98.842 418.307 105.213 431.236 99.3558 435.045C92.6778 439.389 94.5346 449.488 97.1788 457.002C90.4098 442.434 89.5954 425.203 94.9602 410.062C94.4301 419.668 93.9 429.274 93.3694 438.879C97.9114 438.215 99.7459 432.68 100.122 428.105C100.497 423.53 100.783 418.147 104.629 415.642C103.193 411.982 102.604 407.992 102.921 404.073C101.249 403.533 99.5774 402.994 97.9058 402.454C96.9016 409.527 89.0462 413.006 82.5684 416.017C75.5749 419.268 68.9958 423.409 63.0393 428.307C56.6502 433.561 50.5658 440.784 51.2734 449.026C51.9536 456.95 58.7824 463.01 65.9513 466.454C58.2746 466.437 51.6853 459.608 50.4478 452.031C49.2103 444.455 52.5118 436.66 57.6731 430.977C62.834 425.294 69.6781 421.431 76.6184 418.149C85.7067 413.851 96.7303 408.277 97.0696 398.229C97.3519 389.853 106.539 381.645 102.138 374.513C95.9561 364.495 92.5084 352.808 92.262 341.04C92.1402 335.234 93.2 328.661 97.9595 325.333C100.329 323.677 103.277 323.099 106.15 322.769C116.802 321.545 127.776 323.252 137.553 327.653C143.324 330.25 149.626 333.851 155.564 331.663C169.41 326.563 184.137 323.868 198.892 323.734C200.859 323.716 202.491 322.272 203.861 320.86C209.25 315.304 213.747 308.875 219.611 303.824C225.475 298.773 233.277 295.137 240.857 296.7C248.793 298.336 254.717 305.403 257.309 313.08C259.902 320.757 259.755 329.051 259.58 337.151C259.266 351.659 277.463 359.56 282.159 373.289C284.928 381.384 294.063 385.136 302.278 387.524C310.494 389.912 319.696 392.558 323.931 399.993C327.875 406.917 325.924 415.988 321.268 422.455C316.613 428.923 309.719 433.354 302.994 437.629C292.106 444.551 295.163 462.254 286.4 471.724C281.982 476.497 283.49 484.114 285.783 490.201C288.075 496.288 290.894 503.058 288.296 509.021C286.877 499.468 284.386 490.074 280.883 481.074C275.998 484.625 278.471 492.266 281.383 497.557C285.053 504.224 288.723 510.891 292.392 517.559C293.919 520.331 295.497 523.387 294.948 526.504C294.32 530.068 291.144 532.534 288.202 534.642C281.486 539.455 274.769 544.269 268.052 549.082C265.038 551.242 260.586 550.052 257.959 547.434ZM272.294 485.983C271.705 485.32 270.627 485.644 269.822 486.015C269.015 486.388 268.208 486.76 267.402 487.133C267.225 487.215 267.029 487.298 266.842 487.247C266.487 487.151 266.428 486.626 266.65 486.335C266.873 486.043 267.249 485.926 267.598 485.813C268.342 485.571 269.067 485.275 269.767 484.926C270.167 484.728 270.596 484.464 270.705 484.031C270.814 483.598 270.316 483.071 269.949 483.325C268.865 484.071 267.647 484.62 266.371 484.938C265.988 485.032 265.392 484.913 265.482 484.529C265.516 484.382 265.653 484.285 265.781 484.204C266.919 483.489 268.162 482.938 269.458 482.576C269.924 482.446 269.808 481.661 269.364 481.468C268.919 481.276 268.411 481.471 267.967 481.664C266.893 482.132 265.82 482.601 264.746 483.069C264.515 483.169 264.257 483.301 264.195 483.545C264.14 483.763 264.266 483.983 264.388 484.173C265.169 485.395 265.949 486.617 266.73 487.839C266.849 488.025 266.983 488.224 267.193 488.292C267.422 488.367 267.666 488.264 267.883 488.162C269.369 487.469 270.84 486.742 272.294 485.983ZM198.927 353.047C196.4 353.091 194.501 350.217 194.972 347.733C195.442 345.249 197.675 343.391 200.093 342.654C203.38 341.654 207.303 342.239 209.923 340.017C211.099 339.018 211.817 337.584 212.889 336.474C215.225 334.054 219.288 333.542 222.151 335.307C222.794 333.62 220.892 331.989 219.112 331.688C217.331 331.388 215.412 331.747 213.772 330.992C210.891 329.665 207.5 331.369 205.194 333.547C202.889 335.725 200.998 338.468 198.157 339.876C195.315 341.284 191.016 340.498 190.234 337.425C189.991 336.467 189.961 335.198 189.027 334.875C187.554 334.366 186.787 332.646 186.875 331.09C186.962 329.533 187.708 328.101 188.438 326.724C185.551 326.578 182.653 326.668 179.78 326.991C179.091 327.069 178.215 327.36 178.217 328.053C178.22 329.486 176.889 330.514 175.694 331.304C173.164 332.977 170.634 334.649 168.103 336.322C168.183 337.992 170.646 338.392 172.088 337.546C173.531 336.7 174.547 335.188 176.102 334.573C176.933 334.244 177.845 334.204 178.738 334.168C180.262 334.106 181.786 334.044 183.311 333.982C185.264 333.902 187.899 334.398 188.003 336.35C188.087 337.952 186.31 338.887 185.172 340.017C182.581 342.587 182.59 347.563 179.191 348.89C177.983 349.361 177.658 351.035 178.187 352.219C178.718 353.402 179.823 354.207 180.868 354.974C199.119 368.365 230.912 402.889 231.608 402.981C232.303 403.073 233.119 402.574 233.081 401.873C232.98 400.062 232.882 398.217 233.326 396.458C233.768 394.698 234.844 393.005 236.503 392.269C238.031 391.591 240.256 391.438 240.586 389.798C241.327 386.132 244.997 383.296 248.733 383.506C250.567 383.609 252.592 384.309 254.12 383.286C252.888 382.118 251.068 381.877 249.541 381.136C248.014 380.394 246.671 378.517 247.583 377.085C248.93 374.971 246.968 372.206 247.371 369.732C247.543 368.682 248.136 367.752 248.763 366.892C250.889 363.979 253.574 361.475 256.629 359.557C257.339 359.112 257.517 358.173 257.629 357.342C257.899 355.335 258.169 353.329 258.439 351.322C258.627 349.922 258.755 348.316 257.794 347.28C254.668 343.91 249.463 343.8 244.869 343.95C240.275 344.1 235.083 344.041 231.901 340.724C230.913 339.695 229.109 340.045 228.038 340.987C226.966 341.929 226.374 343.286 225.577 344.469C223.085 348.164 218.262 350.123 213.899 349.21C211.562 348.722 209.206 347.49 206.912 348.15C203.854 349.029 202.109 352.993 198.927 353.047ZM286.73 444.008C286.87 444.518 287.076 445.1 287.576 445.272C287.977 445.41 288.41 445.221 288.792 445.037C290.061 444.426 291.33 443.815 292.6 443.204C293.251 442.89 293.983 442.473 294.099 441.76C296.449 427.286 295.768 412.328 292.113 398.128C291.249 394.77 290.218 391.447 288.844 388.263C287.09 384.196 284.79 380.389 282.43 376.641C279.033 371.245 275.493 365.94 271.815 360.732C271.132 361.796 270.929 363.085 270.582 364.301C270.235 365.517 269.653 366.777 268.536 367.369C267.42 367.962 265.705 367.459 265.507 366.211C265.079 363.511 262.182 361.47 259.496 361.976C258.919 362.084 258.728 362.803 258.656 363.386C258.002 368.688 257.348 373.99 256.695 379.292C256.647 379.677 256.627 380.136 256.93 380.379C257.183 380.581 257.543 380.536 257.866 380.531C259.694 380.504 261.288 382.413 260.935 384.207C260.582 386.001 258.383 387.163 256.702 386.444C255.976 386.134 255.408 387.118 255.226 387.886C254.128 392.521 253.03 397.156 251.932 401.791C251.608 403.158 252.789 404.448 254.059 405.049C255.328 405.65 256.78 405.867 257.945 406.652C260.864 408.618 260.738 413.088 263.098 415.698C265.021 417.824 268.578 418.211 270.913 416.548C273.002 415.059 273.91 412.341 273.911 409.776C273.912 408.027 274.998 406.324 276.584 405.587C278.169 404.849 280.172 405.114 281.51 406.24C282.814 407.337 283.405 409.04 283.939 410.658C284.174 411.371 284.41 412.15 284.157 412.857C283.744 414.014 282.322 414.357 281.159 414.754C279.024 415.484 277.153 416.961 275.948 418.868C275.36 419.799 274.961 421.105 275.689 421.931C277.468 423.95 279.247 425.969 281.026 427.987C281.957 429.043 282.915 430.15 283.289 431.506C284.436 435.673 285.583 439.84 286.73 444.008ZM105.489 377.643C108.277 372.44 111.092 367.195 114.88 362.666C118.197 358.701 122.193 355.366 126.183 352.077C131.439 347.745 136.727 343.451 142.047 339.196C144.261 337.425 146.51 335.643 149.092 334.47C141.352 331.06 133.563 327.632 125.346 325.629C117.129 323.626 108.377 323.103 100.269 325.511C99.4878 325.743 98.7034 326.006 98.029 326.464C96.8904 327.236 96.1712 328.488 95.6318 329.754C93.5112 334.728 93.6302 340.365 94.32 345.729C95.768 356.989 99.5994 367.938 105.489 377.643ZM280.238 532.08C280.165 532.836 279.35 533.547 278.665 533.218C278.342 533.063 278.145 532.734 277.967 532.423C275.237 527.657 272.507 522.891 269.777 518.125C268.016 518.788 267.169 520.912 267.367 522.783C267.565 524.655 268.563 526.333 269.537 527.944C271.027 530.406 272.517 532.869 274.007 535.332C273.224 536.139 271.962 535.067 271.382 534.104C269.314 530.671 267.247 527.238 265.179 523.806C261.23 527.868 257.281 531.93 253.331 535.991C255.903 540.012 258.475 544.032 261.047 548.052C261.653 548.999 262.951 549.302 264.05 549.064C265.149 548.826 266.1 548.158 267.016 547.507C273.908 542.605 280.8 537.703 287.693 532.801C288.217 532.428 288.778 532.003 288.932 531.378C289.093 530.726 288.759 530.063 288.435 529.474C272.843 501.111 256.203 473.324 238.56 446.19C238.04 445.391 237.384 444.509 236.433 444.446C235.799 444.404 235.212 444.749 234.671 445.082C227.673 449.388 220.676 453.694 213.678 458C212.383 458.798 211.087 459.595 209.792 460.392C209.454 460.6 209.091 460.84 208.978 461.219C208.845 461.668 209.11 462.129 209.365 462.521C211.914 466.437 214.605 470.26 217.43 473.982C220.77 470.387 224.743 466.516 229.647 466.638C233.881 466.743 237.375 469.823 240.459 472.726C242.263 474.425 244.067 476.123 245.871 477.821C243.02 472.479 239.649 467.415 235.821 462.724C235.656 461.934 237.047 462.15 237.583 462.753C242.925 468.762 245.865 476.659 251.49 482.404C257.239 488.274 262.988 494.144 268.736 500.015C271.178 502.508 273.769 505.325 273.961 508.809C274.137 511.992 272.251 514.887 270.354 517.448C273.698 521.395 276.756 525.584 279.498 529.971C279.9 530.615 280.311 531.324 280.238 532.08ZM219.357 327.379C221.778 327.859 224.202 328.339 226.577 329.009C232.694 330.737 238.381 333.692 244.019 336.628C248.939 339.19 253.887 341.769 258.303 345.127C258.783 333.125 258.307 321.209 254.314 309.881C253.163 306.614 250.381 303.092 247.676 300.929C244.499 298.39 240.089 297.943 236.063 298.519C229.03 299.525 222.625 303.292 217.35 308.049C212.074 312.807 207.797 318.548 203.555 324.247C208.823 325.291 214.09 326.335 219.357 327.379ZM290.004 385.632C296.799 402.968 299.018 422.074 296.377 440.505C305 435.563 312.707 429.03 318.994 421.331C322.126 417.495 325.029 412.98 324.825 408.031C324.657 403.965 322.344 400.211 319.289 397.521C316.235 394.831 312.483 393.073 308.713 391.54C302.648 389.074 296.385 387.096 290.004 385.632ZM276.678 415.273C278.275 414.101 279.984 413.082 281.773 412.234C281.769 411.092 281.757 409.913 281.298 408.867C280.84 407.821 279.812 406.936 278.672 407.014C277.475 407.097 276.572 408.191 276.191 409.329C275.811 410.468 275.804 411.695 275.542 412.867C274.815 416.106 271.944 418.75 268.656 419.209C265.368 419.668 261.883 417.912 260.296 414.996C259.017 412.646 258.825 409.605 256.787 407.872C255.658 406.911 254.156 406.543 252.714 406.203C252.379 406.125 252.022 406.047 251.697 406.158C251.173 406.337 250.928 406.922 250.743 407.443C249.508 410.936 248.272 414.429 247.037 417.922C246.58 419.214 246.205 420.865 247.226 421.779C256.656 430.219 260.494 443.641 270.084 451.898C270.368 452.143 270.718 452.398 271.083 452.311C275.658 451.226 280.093 449.553 284.245 447.347C284.576 447.172 284.921 446.978 285.11 446.655C285.302 446.328 285.301 445.925 285.282 445.546C285.145 442.937 284.369 440.363 283.041 438.112C282.413 437.047 281.642 435.996 281.522 434.766C281.42 433.716 281.81 432.639 281.561 431.613C281.357 430.776 280.757 430.101 280.177 429.463C278.54 427.66 276.902 425.858 275.265 424.056C274.455 423.164 273.613 422.213 273.365 421.035C272.882 418.738 274.787 416.661 276.678 415.273ZM174.043 362.208C175.975 361.046 177.145 358.728 176.934 356.483C176.626 353.208 173.805 350.821 171.201 348.81C166.935 345.516 157.179 337.512 152.889 335.791C148.6 334.071 129.622 350.999 123.028 357.49C122.695 357.817 122.348 358.175 122.255 358.633C122.162 359.091 120.147 364.019 124.204 365.217C128.262 366.415 128.697 365.492 130.354 364.019C132.012 362.546 132.977 360.457 133.756 358.381C134.421 356.608 136.432 355.76 138.287 355.382C140.143 355.004 142.143 354.863 143.678 353.753C145.276 352.598 147.509 352.666 149.331 353.421C151.153 354.176 152.657 355.519 154.124 356.839C155.349 357.94 157.329 356.708 158.084 355.243C158.839 353.779 159.157 351.972 160.477 350.987C162.366 349.578 165.264 350.839 166.427 352.888C168.081 355.802 166.911 359.963 163.982 361.589C162.284 362.531 159.8 363.163 159.733 365.104C159.699 366.068 160.372 366.917 161.123 367.524C162.469 368.613 164.662 369.13 165.809 367.833C167.443 365.984 165.618 362.077 167.882 361.095C169.881 360.227 172.175 363.332 174.043 362.208ZM225.667 341.525C226.344 340.474 227.023 339.324 228.153 338.788C229.596 338.104 231.33 338.647 232.699 339.47C234.069 340.293 235.292 341.394 236.794 341.938C238.323 342.492 239.998 342.418 241.622 342.335C244.323 342.199 247.025 342.063 249.726 341.927C233.398 332.466 215.032 325.831 196.162 325.645C194.571 325.629 192.944 325.665 191.452 326.215C189.959 326.766 188.603 327.924 188.221 329.468C187.638 331.82 189.778 334.333 192.199 334.408C190.934 335.334 191.129 337.484 192.333 338.487C193.538 339.489 195.342 339.481 196.788 338.878C198.235 338.274 199.407 337.173 200.545 336.095C202.662 334.089 204.78 332.082 206.897 330.075C208.228 328.814 210.3 328.761 212.099 329.117C213.897 329.473 215.658 330.162 217.491 330.117C221.34 330.023 224.749 333.975 224.092 337.768C222.365 336.139 219.852 335.384 217.513 335.791C215.174 336.198 213.064 337.758 211.988 339.875C211.116 341.591 209.17 342.498 207.278 342.851C205.386 343.204 203.431 343.131 201.546 343.52C199.661 343.91 197.738 344.902 196.968 346.666C196.196 348.43 197.204 350.945 199.121 351.123C201.353 351.33 202.657 348.708 204.535 347.483C206.322 346.318 208.655 346.47 210.74 346.923C212.825 347.376 214.91 348.091 217.036 347.907C220.731 347.588 223.658 344.642 225.667 341.525ZM285.461 449.034C281.183 450.683 276.905 452.333 272.626 453.983C272.031 454.212 271.307 454.798 271.664 455.327C275.745 461.349 278.887 468.008 280.94 474.987C281.14 475.667 282.171 475.158 282.574 474.576C286.316 469.166 289.299 463.232 291.41 457.002C291.791 455.875 292.147 454.656 291.82 453.512C291.305 451.713 289.372 450.807 287.947 449.594C287.554 449.259 287.156 448.871 286.645 448.797C286.242 448.738 285.841 448.887 285.461 449.034ZM236.105 395.536C234.14 397.623 235.791 401.158 234.782 403.841C234.558 404.436 234.196 405.063 234.403 405.664C234.505 405.964 234.736 406.198 234.959 406.422C235.658 407.123 236.357 407.823 237.056 408.523C237.604 409.073 238.494 409.642 239.066 409.117C241.416 406.955 244.264 405.337 247.324 404.424C248.205 404.161 249.158 403.923 249.773 403.24C250.315 402.637 250.49 401.798 250.645 401.002C251.509 396.544 252.367 392.086 253.219 387.626C253.286 387.278 253.35 386.905 253.208 386.581C253.058 386.236 252.71 386.025 252.371 385.864C248.929 384.224 244.3 385.904 242.71 389.37C242.171 390.546 241.922 391.908 241.016 392.832C239.696 394.179 237.398 394.163 236.105 395.536ZM167.475 338.519C166.81 337.915 166.121 337.157 166.187 336.26C166.257 335.305 167.141 334.647 167.943 334.122C170.783 332.264 173.624 330.407 176.464 328.549C176.395 327.998 175.622 327.939 175.075 328.039C167.72 329.376 160.515 331.532 153.634 334.453C161.307 339.184 168.669 344.42 175.654 350.116C176.502 348.192 178.684 347.244 179.976 345.585C181.608 343.489 181.73 340.375 183.737 338.635C184.722 337.78 186.185 337.188 186.382 335.9C184.659 335.912 182.936 335.924 181.213 335.936C179.117 335.951 176.886 336.005 175.144 337.171C173.625 338.189 172.457 340.04 170.628 340.092C169.423 340.127 168.367 339.329 167.475 338.519ZM253.37 453.137C254.707 455.535 256.044 457.932 257.382 460.33C254.932 452.536 252.01 444.889 248.639 437.447C248.519 437.183 248.382 436.9 248.125 436.765C247.809 436.597 247.424 436.708 247.084 436.821C237.586 439.997 228.087 443.173 218.588 446.349C218.299 446.445 217.987 446.561 217.832 446.823C217.646 447.137 217.757 447.537 217.882 447.881C218.438 449.416 219.167 450.89 220.049 452.265C226.006 448.799 231.964 445.333 237.921 441.866C238.838 441.333 239.803 440.784 240.864 440.744C241.74 440.711 242.593 441.033 243.377 441.428C248.031 443.776 250.831 448.585 253.37 453.137ZM210.243 518C209.045 515.443 206.991 513.349 204.632 511.797C201.735 517.178 198.411 522.329 194.701 527.185C194.418 527.557 194.313 528.317 194.78 528.284C199.303 527.966 203.827 527.648 208.35 527.33C209.258 527.266 210.349 527.075 210.683 526.228C211.718 523.601 211.44 520.558 210.243 518ZM278.538 480.272C278.904 479.711 279.277 479.135 279.426 478.481C279.622 477.617 279.405 476.718 279.172 475.863C277.378 469.288 274.555 463.013 271.032 457.179C270.622 456.5 270.181 455.804 269.513 455.376C268.845 454.947 267.885 454.869 267.303 455.407C266.524 456.127 266.82 457.397 267.174 458.395C269.983 466.308 272.791 474.221 275.599 482.133C275.767 482.604 276.148 483.184 276.614 483.003C276.796 482.933 276.914 482.76 277.021 482.597C277.526 481.822 278.032 481.047 278.538 480.272ZM250.351 379.636C251.164 380.322 252.243 380.581 253.279 380.82C254.11 381.011 254.602 379.928 254.746 379.087C255.706 373.473 256.324 367.807 256.94 362.144C256.469 361.944 255.969 362.329 255.601 362.685C254.279 363.967 252.958 365.249 251.637 366.531C250.717 367.423 249.755 368.388 249.464 369.635C248.908 372.01 250.933 374.717 249.653 376.794C249.096 377.699 249.538 378.95 250.351 379.636ZM247.473 424.546C247.156 424.19 246.814 423.822 246.359 423.675C245.905 423.528 245.313 423.695 245.156 424.145C243.749 428.169 242.342 432.193 240.935 436.217C240.802 436.599 240.892 437.243 241.28 437.129C243.653 436.429 245.842 435.19 248.224 434.524C250.607 433.859 253.393 433.867 255.296 435.447C253.076 431.555 250.45 427.895 247.473 424.546ZM267.794 365.704C268.508 363.769 269.222 361.833 269.936 359.897C270.074 359.522 269.8 359.131 269.543 358.825C266.995 355.79 264.426 352.735 261.341 350.247C261.21 350.141 261.061 350.031 260.893 350.04C260.572 350.057 260.444 350.456 260.399 350.774C260.015 353.472 259.631 356.172 259.247 358.871C259.135 359.657 259.86 360.341 260.619 360.574C261.379 360.806 262.197 360.741 262.978 360.887C264.418 361.155 265.694 362.186 266.258 363.538C266.616 364.396 266.88 365.537 267.794 365.704ZM245.018 417.841C246.367 414.392 247.604 410.898 248.727 407.368C248.802 407.131 248.878 406.873 248.798 406.637C248.584 406.006 247.65 406.169 247.055 406.468C244.716 407.639 242.467 408.99 240.333 410.504C240.068 410.692 239.779 410.929 239.769 411.254C239.761 411.5 239.92 411.716 240.071 411.909C241.656 413.939 243.306 415.918 245.018 417.841ZM264.805 474.702C264.553 474.426 264.138 474.384 263.764 474.39C262.918 474.404 262.075 474.576 261.292 474.895C260.906 475.053 260.523 475.248 260.108 475.269C259.692 475.29 259.226 475.074 259.124 474.67C260.222 473.885 261.555 473.431 262.904 473.382C263.504 473.36 263.522 472.341 262.995 472.052C262.468 471.764 261.818 471.975 261.258 472.19C260.331 472.546 259.404 472.902 258.477 473.258C258.208 473.362 257.93 473.036 257.969 472.75C258.008 472.463 258.24 472.246 258.47 472.07C259.304 471.433 260.299 471.009 261.335 470.849C261.83 470.773 261.909 470.007 261.548 469.661C261.187 469.315 260.632 469.293 260.133 469.318C258.68 469.394 257.241 469.709 255.89 470.246C257.042 472.313 258.218 474.367 259.419 476.406C259.73 476.934 260.067 477.486 260.605 477.778C261.572 476.557 263.043 475.748 264.592 475.584C264.964 475.544 265.058 474.978 264.805 474.702ZM284.649 511.998C283.761 512.225 282.882 512.484 282.012 512.773C281.774 512.853 281.5 512.977 281.459 513.224C281.435 513.372 281.506 513.516 281.575 513.648C282.086 514.63 282.596 515.611 283.107 516.592C283.314 516.99 283.731 517.458 284.118 517.23C285.392 516.481 286.814 515.987 288.278 515.785C288.681 515.729 288.944 515.297 288.953 514.891C288.962 514.484 288.782 514.101 288.606 513.734C288.305 513.106 287.974 512.443 287.381 512.077C286.584 511.585 285.558 511.767 284.649 511.998ZM288.076 522.783C287.729 522.847 287.327 522.951 287.191 523.277C287.08 523.543 287.198 523.844 287.314 524.107C287.757 525.112 288.199 526.117 288.642 527.122C288.781 527.436 288.964 527.788 289.299 527.863C289.537 527.916 289.779 527.807 289.999 527.702C290.682 527.375 291.364 527.048 292.047 526.721C292.431 526.537 292.838 526.332 293.049 525.962C293.26 525.592 293.148 525.012 292.737 524.899C292.518 524.839 292.287 524.925 292.082 525.024C291.471 525.321 290.92 525.753 290.267 525.943C289.614 526.133 288.783 525.987 288.473 525.382C290.082 524.811 291.619 524.041 293.039 523.094C292.912 522.207 291.668 522.128 290.786 522.289C289.882 522.454 288.979 522.619 288.076 522.783ZM274.937 499.708C275.199 499.423 275.578 499.284 275.942 499.155C276.943 498.799 277.945 498.442 278.947 498.086C279.468 497.901 279.34 497.035 278.849 496.783C278.357 496.529 277.764 496.687 277.236 496.85C276.09 497.203 274.945 497.556 273.799 497.909C273.65 497.955 273.492 498.005 273.387 498.121C273.148 498.387 273.309 498.805 273.479 499.12C273.933 499.958 274.387 500.797 274.841 501.635C274.894 501.733 274.954 501.837 275.054 501.885C275.176 501.942 275.319 501.898 275.446 501.854C276.84 501.373 278.235 500.891 279.629 500.409C279.961 500.294 280.361 500.083 280.333 499.732C280.295 499.254 279.593 499.25 279.135 499.395C277.701 499.85 276.267 500.306 274.833 500.761C274.58 500.469 274.676 499.992 274.937 499.708ZM292.76 444.998C291.526 445.696 290.291 446.394 289.057 447.091C288.908 447.175 288.752 447.266 288.671 447.416C288.456 447.812 288.881 448.243 289.256 448.494C290.024 449.008 290.792 449.523 291.559 450.037C291.711 450.139 291.874 450.244 292.056 450.246C292.469 450.249 292.682 449.763 292.788 449.363C293.129 448.08 293.47 446.797 293.81 445.514C293.853 445.353 293.895 445.176 293.826 445.025C293.659 444.659 293.11 444.801 292.76 444.998ZM276.508 502.581C276.209 502.658 275.87 502.769 275.758 503.056C275.675 503.27 275.75 503.511 275.847 503.719C276.097 504.252 276.493 504.717 276.98 505.05C278.275 504.555 279.57 504.061 280.866 503.566C281.422 503.354 282.081 502.996 282.058 502.401C282.04 501.975 281.638 501.644 281.22 501.562C280.802 501.48 280.372 501.587 279.959 501.693C278.808 501.989 277.658 502.285 276.508 502.581ZM257.742 455.99C258.195 456.874 259.316 457.13 260.297 457.289C261.861 457.543 263.426 457.796 264.99 458.05C265.017 457.162 264.101 456.572 263.287 456.215C261.796 455.562 260.24 455.057 258.648 454.712C258.477 454.674 258.298 454.639 258.127 454.68C257.617 454.803 257.503 455.523 257.742 455.99ZM251.942 455.32C252.064 455.274 252.188 455.226 252.294 455.149C252.761 454.806 252.619 454 252.142 453.67C251.666 453.34 251.021 453.384 250.469 453.558C249.916 453.732 249.4 454.02 248.835 454.147C248.071 454.32 247.073 454.312 246.78 455.038C246.53 455.658 247.103 456.36 247.756 456.504C248.409 456.647 249.078 456.406 249.703 456.169C250.449 455.886 251.196 455.603 251.942 455.32ZM254.945 460.913C255.576 460.501 255.284 459.418 254.613 459.075C253.943 458.733 253.137 458.893 252.404 459.061C251.63 459.238 250.803 459.445 250.276 460.039C249.749 460.633 249.749 461.745 250.469 462.081C251.446 462.538 252.363 461.248 253.43 461.089C253.94 461.013 254.514 461.194 254.945 460.913ZM277.077 495.618C277.289 495.547 277.512 495.467 277.649 495.291C277.8 495.094 277.805 494.814 277.72 494.581C277.519 494.036 276.891 493.745 276.31 493.756C275.729 493.766 275.181 494.014 274.654 494.256C273.981 494.564 273.309 494.873 272.637 495.181C272.267 495.351 271.849 495.582 271.788 495.984C271.726 496.393 272.101 496.764 272.505 496.85C272.91 496.937 273.326 496.816 273.722 496.694C274.844 496.348 275.963 495.989 277.077 495.618ZM280.107 509.853C281.555 509.244 283.002 508.635 284.45 508.026C284.587 507.969 284.729 507.908 284.828 507.798C285.122 507.472 284.854 506.905 284.444 506.748C284.034 506.592 283.577 506.713 283.155 506.835C282.177 507.118 281.199 507.402 280.22 507.685C279.679 507.842 279.073 508.053 278.845 508.568C278.533 509.272 279.397 510.152 280.107 509.853ZM289.88 518.294C290.459 518.07 290.248 517.096 289.673 516.862C289.099 516.628 288.454 516.868 287.873 517.083C286.733 517.503 285.558 517.827 284.363 518.053C283.947 518.613 284.454 519.472 285.126 519.662C285.798 519.852 286.506 519.597 287.157 519.346C288.065 518.995 288.973 518.644 289.88 518.294ZM259.057 453.409C260.224 453.714 261.39 454.02 262.557 454.326C263.001 454.442 263.685 454.377 263.653 453.919C261.638 452.526 259.32 451.575 256.908 451.15C256.78 451.128 256.645 451.108 256.523 451.152C256.104 451.304 256.264 451.952 256.579 452.267C257.231 452.917 258.166 453.175 259.057 453.409ZM263.465 448.902C263.878 449.894 264.29 450.886 264.703 451.878C264.952 452.476 265.231 453.11 265.779 453.454C266.327 453.798 267.219 453.652 267.399 453.031C267.535 452.557 267.215 452.084 266.911 451.696C265.749 450.214 264.553 448.76 263.323 447.335C263.051 447.806 263.256 448.399 263.465 448.902ZM261.467 450.766C261.686 450.842 261.952 450.91 262.13 450.76C262.336 450.585 262.262 450.247 262.121 450.015C261.61 449.173 260.575 448.84 259.628 448.571C258.354 448.209 257.081 447.847 255.807 447.485C255.411 447.373 255.113 447.951 255.299 448.318C255.484 448.685 255.91 448.85 256.299 448.985C258.022 449.578 259.744 450.172 261.467 450.766ZM278.497 505.466C278.139 505.574 277.749 505.706 277.554 506.024C277.206 506.591 277.714 507.331 278.313 507.622C279.664 506.522 281.385 505.887 283.125 505.845C283.718 505.831 283.769 504.838 283.267 504.524C282.765 504.209 282.113 504.371 281.546 504.543C280.529 504.851 279.513 505.158 278.497 505.466ZM272.84 489.96C272.018 490.177 271.197 490.394 270.376 490.611C269.623 490.81 268.679 491.303 268.859 492.061C269.013 492.706 269.914 492.852 270.519 492.581C271.124 492.309 271.586 491.782 272.188 491.505C273.172 491.05 274.557 491.216 275.109 490.283C274.639 489.615 273.629 489.751 272.84 489.96ZM242.062 446.533C241.904 446.601 241.742 446.679 241.638 446.816C241.369 447.169 241.662 447.718 242.077 447.873C242.493 448.028 242.954 447.916 243.385 447.813C244.834 447.466 246.309 447.226 247.793 447.095C247.937 446.281 246.873 445.824 246.046 445.792C244.685 445.738 243.313 445.993 242.062 446.533ZM266.077 478.104C266.502 477.653 266.261 476.648 265.653 476.767C264.039 477.082 262.484 477.692 261.087 478.558C260.76 479.223 261.663 479.913 262.395 479.798C263.127 479.682 263.715 479.145 264.4 478.865C264.974 478.63 265.651 478.555 266.077 478.104ZM266.961 463.523C266.769 463.282 266.464 463.167 266.173 463.064C264.763 462.559 263.353 462.055 261.942 461.551C261.557 461.412 261.124 461.275 260.749 461.44C260.374 461.604 260.224 462.226 260.591 462.408C262.398 463.302 264.319 463.964 266.292 464.375C266.497 464.417 266.727 464.453 266.904 464.341C267.164 464.175 267.151 463.765 266.961 463.523ZM260.321 446.931C260.522 447.051 260.786 446.825 260.792 446.592C260.797 446.358 260.64 446.154 260.481 445.982C258.967 444.329 256.743 443.557 254.617 442.847C254.077 442.666 253.288 442.605 253.131 443.152C255.589 444.289 257.99 445.551 260.321 446.931ZM291.687 520.257C291.559 519.814 291.092 519.539 290.633 519.492C290.175 519.446 289.719 519.582 289.279 519.717C288.509 519.953 287.74 520.188 286.971 520.423C286.439 520.585 285.793 520.905 285.838 521.459C285.874 521.91 286.4 522.18 286.849 522.137C287.3 522.093 287.697 521.839 288.105 521.644C288.995 521.217 290.01 521.058 290.988 521.191C291.445 521.253 291.814 520.701 291.687 520.257ZM243.436 449.904C243.429 450.321 243.755 450.717 244.165 450.793C244.429 450.842 244.7 450.769 244.959 450.696C246.457 450.279 247.954 449.862 249.452 449.444C249.475 449.023 249.112 448.66 248.708 448.538C248.305 448.416 247.872 448.478 247.455 448.542C246.367 448.707 245.279 448.873 244.192 449.038C243.78 449.101 243.442 449.488 243.436 449.904ZM268.172 479.859C268.232 479.468 267.847 479.122 267.454 479.073C267.062 479.024 266.676 479.184 266.313 479.341C265.157 479.84 264.002 480.339 262.846 480.838C262.502 481.274 262.925 481.966 263.467 482.089C264.009 482.212 264.559 481.964 265.059 481.723C265.848 481.342 266.638 480.962 267.427 480.581C267.752 480.424 268.117 480.215 268.172 479.859ZM251.644 439.841C251.777 440.079 252.042 440.205 252.29 440.316C254.349 441.238 256.408 442.161 258.468 443.084C258.833 443.247 259.366 443.359 259.547 443.001C259.74 442.617 259.263 442.251 258.867 442.082C256.652 441.141 254.437 440.2 252.221 439.259C252.11 439.212 251.991 439.163 251.872 439.183C251.603 439.228 251.511 439.604 251.644 439.841ZM262.308 466.407C262.239 466.378 262.165 466.348 262.091 466.363C262.015 466.378 261.951 466.445 261.94 466.522C262.12 467.754 263.503 468.362 264.688 468.746C266.236 469.249 267.785 469.751 269.333 470.254C269.705 469.842 269.097 469.272 268.586 469.056C266.493 468.174 264.401 467.291 262.308 466.407ZM250.859 451.964C251.031 451.639 250.771 451.232 250.444 451.064C249.871 450.769 249.181 450.933 248.56 451.104C247.853 451.298 247.145 451.492 246.438 451.686C245.929 451.826 245.315 452.09 245.296 452.618C245.282 453.013 245.654 453.336 246.043 453.409C246.432 453.481 246.829 453.367 247.207 453.254C248.216 452.953 249.224 452.652 250.233 452.35C250.475 452.278 250.741 452.187 250.859 451.964ZM285.915 509.305C285.495 509.062 284.966 509.204 284.503 509.352C283.032 509.823 281.56 510.293 280.088 510.764C279.763 511.285 280.355 511.978 280.968 512.015C281.582 512.051 282.138 511.693 282.68 511.403C283.665 510.875 284.751 510.536 285.861 510.408C286.344 510.353 286.336 509.549 285.915 509.305ZM257.807 464.625C257.336 464.499 256.837 464.586 256.356 464.675C255.763 464.785 255.169 464.894 254.575 465.003C253.902 465.128 253.048 465.476 253.119 466.157C253.161 466.559 253.558 466.849 253.958 466.907C254.358 466.966 254.76 466.847 255.146 466.729C256.331 466.368 257.517 466.007 258.701 465.647C258.713 465.158 258.279 464.751 257.807 464.625ZM253.765 456.641C253.436 456.305 252.893 456.281 252.44 456.412C251.988 456.542 251.582 456.799 251.14 456.962C250.619 457.153 250.055 457.21 249.536 457.406C249.016 457.603 248.514 457.995 248.424 458.543C248.619 458.999 249.274 458.948 249.753 458.819C251.022 458.478 252.291 458.136 253.561 457.794C254.016 457.671 254.095 456.978 253.765 456.641ZM251.999 462.852C251.47 463.006 251.561 463.879 252.044 464.145C252.526 464.411 253.121 464.264 253.65 464.111C254.76 463.791 255.869 463.47 256.979 463.15C257.06 462.595 256.553 462.094 256.006 461.973C255.459 461.853 254.893 462.01 254.355 462.167C253.569 462.395 252.785 462.623 251.999 462.852ZM258.295 384.789C259 384.28 258.891 383.232 258.912 382.362C257.993 382.25 256.986 382.157 256.21 382.664C255.435 383.171 255.227 384.54 256.057 384.951C256.342 385.092 256.675 385.089 256.993 385.082C257.445 385.072 257.928 385.052 258.295 384.789ZM260.073 458.694C259.628 458.648 258.981 458.844 259.107 459.273C259.168 459.479 259.394 459.579 259.596 459.653C261.529 460.352 263.548 460.814 265.593 461.027C265.847 460.969 265.921 460.611 265.788 460.387C265.656 460.164 265.401 460.048 265.16 459.951C263.534 459.298 261.816 458.873 260.073 458.694ZM251.073 437.228C252.746 438.088 254.451 438.885 256.182 439.617C256.519 439.76 256.901 439.901 257.239 439.762C257.577 439.623 257.706 439.057 257.371 438.91C255.402 438.049 253.433 437.187 251.463 436.325C251.151 436.188 250.705 436.09 250.536 436.387C250.35 436.712 250.74 437.058 251.073 437.228ZM267.627 466.056C267.343 465.797 266.96 465.682 266.59 465.573C265.037 465.116 263.483 464.66 261.929 464.204C261.715 464.141 261.475 464.079 261.274 464.178C261.073 464.277 261 464.615 261.201 464.714C263.327 465.756 265.571 466.556 267.876 467.095C268.067 466.76 267.913 466.315 267.627 466.056ZM268.846 490.033C269.954 489.641 271.062 489.249 272.17 488.858C272.657 488.685 273.18 488.485 273.459 488.05C273.388 487.66 272.966 487.415 272.569 487.407C272.173 487.399 271.798 487.571 271.438 487.739C270.468 488.192 269.496 488.646 268.525 489.099C268.175 489.263 267.771 489.504 267.765 489.891C267.947 490.246 268.47 490.166 268.846 490.033ZM260.043 467.876C260.302 467.588 260.069 467.088 259.709 466.944C259.35 466.801 258.945 466.899 258.57 466.999C257.299 467.34 256.027 467.68 254.756 468.02C254.525 468.287 254.732 468.739 255.057 468.879C255.381 469.019 255.753 468.944 256.098 468.867C257.245 468.613 258.392 468.358 259.54 468.104C259.723 468.063 259.918 468.015 260.043 467.876ZM275.58 491.705C275.318 491.647 275.05 491.751 274.801 491.853C273.446 492.407 272.091 492.961 270.735 493.514C270.342 493.675 270.501 494.341 270.9 494.487C271.298 494.633 271.733 494.444 272.115 494.259C273.28 493.696 274.444 493.132 275.609 492.568C275.742 492.504 275.883 492.431 275.948 492.299C276.067 492.058 275.842 491.763 275.58 491.705ZM265.628 470.179C265.106 469.986 264.353 469.885 264.145 470.4C265.982 471.346 267.931 472.076 269.937 472.569C270.347 472.321 269.835 471.737 269.386 471.57C268.133 471.107 266.881 470.643 265.628 470.179ZM240.357 444.793C240.006 445.191 240.351 445.947 240.882 445.942C242.096 445.15 243.512 444.673 244.958 444.569C244.5 443.996 243.706 443.778 242.975 443.835C242.243 443.893 241.553 444.184 240.878 444.472C240.689 444.553 240.493 444.638 240.357 444.793ZM270.043 474.56C270.44 474.656 271.066 474.545 270.967 474.148C269.308 473.399 267.559 472.849 265.77 472.512C265.572 472.778 265.691 473.181 265.938 473.402C266.185 473.623 266.521 473.709 266.844 473.787C267.91 474.045 268.977 474.303 270.043 474.56ZM268.788 476.639C269.717 476.927 270.679 477.108 271.65 477.178C271.844 476.921 271.733 476.529 271.495 476.311C271.258 476.094 270.932 476.007 270.62 475.928C269.63 475.676 268.64 475.425 267.651 475.173C267.291 475.791 268.105 476.428 268.788 476.639ZM289.947 529.398C289.725 529.942 290.013 530.704 290.596 530.779C291.322 530.083 291.945 529.28 292.439 528.404C292.158 528.1 291.662 528.173 291.273 528.317C290.721 528.52 290.169 528.854 289.947 529.398ZM274.45 484.203C273.977 483.763 273.394 483.443 272.77 483.281C272.669 484.167 273.177 485.089 273.979 485.477C274.171 485.57 274.399 485.634 274.595 485.55C275.091 485.339 274.844 484.57 274.45 484.203ZM272.127 478.64C271.802 478.406 271.383 478.361 270.984 478.324C270.493 478.278 270.001 478.233 269.51 478.187C269.272 478.76 269.946 479.318 270.56 479.407C271.174 479.497 271.846 479.374 272.382 479.686C272.625 479.368 272.451 478.875 272.127 478.64ZM275.933 489.434C276.126 489.599 276.363 489.745 276.614 489.718C276.703 488.512 275.889 487.391 274.875 486.733C274.756 487.733 275.166 488.781 275.933 489.434ZM272.787 481.31C272.218 480.997 271.549 480.868 270.905 480.949C271.139 481.577 271.695 482.074 272.345 482.237C272.693 482.324 273.127 482.286 273.317 481.981C273.506 481.677 273.132 481.173 272.839 481.379M240.939 442.261C240.4 442.357 239.894 442.631 239.519 443.03C240.189 443.219 240.953 443.028 241.455 442.547C241.331 442.38 241.139 442.267 240.934 442.238" fill="#00160A"/>
<path fill-rule="evenodd" clip-rule="evenodd" d="M229.373 495.878C234.873 490.595 242.591 491.34 247.99 497.136C252.685 502.179 251.569 508.841 246.237 514.429C244.226 516.515 240.188 517.899 237.266 517.56C234.792 517.314 230.94 515.492 228.653 513.811C227.594 513.033 226.625 511.429 225.711 508.992L225.577 508.628C223.954 504.128 225.05 499.372 228.727 496.388L228.899 496.25L228.937 496.197C228.97 496.158 229.006 496.12 229.048 496.085L229.115 496.034L229.19 495.986L229.346 495.907L229.373 495.878ZM238.933 514.022L237.27 515.801L237.453 515.816C239.158 515.94 240.826 515.673 242.343 515.029L242.427 514.991L242.31 514.984C241.262 514.91 240.154 514.59 239.003 514.055L238.933 514.022ZM234.081 510.681L233.925 510.538L233.76 510.698C233.116 511.326 232.46 511.97 231.79 512.634L231.031 513.387C231.246 513.544 231.47 513.696 231.702 513.846C232.754 514.531 233.89 515.051 235.066 515.389L235.318 515.459L236.534 514.178L237.444 513.215L237.384 513.18C236.241 512.477 235.117 511.615 234.081 510.681ZM242.014 510.726L240.032 512.847L240.131 512.89C241.674 513.537 243.046 513.659 244.226 513.183L244.351 513.13L244.231 512.994C243.635 512.328 242.993 511.666 242.292 510.99L242.014 510.726ZM230.07 506.249L229.718 506.595C229.211 507.088 228.7 507.578 228.184 508.064L227.372 508.823L227.44 508.985C227.99 510.251 228.755 511.354 229.752 512.317L229.788 512.351L229.901 512.237C230.624 511.504 231.369 510.762 232.146 510.002L232.751 509.413L232.586 509.248C231.682 508.328 230.909 507.428 230.258 506.518L230.07 506.249ZM245.252 507.261L243.089 509.576L243.111 509.596C243.941 510.388 244.7 511.165 245.404 511.95L245.618 512.191L245.624 512.184C246.362 511.181 246.235 509.547 245.348 507.48L245.252 507.261ZM237.682 506.947L237.522 507.097C236.782 507.792 236.032 508.504 235.267 509.239L235.051 509.447L235.253 509.625C236.31 510.549 237.324 511.325 238.337 511.951L238.528 512.067L239.886 510.625L240.821 509.629L240.512 509.355C239.951 508.86 239.346 508.341 238.584 507.702L237.682 506.947ZM249.241 502.994L246.248 506.196L246.345 506.384C246.51 506.708 246.671 507.038 246.83 507.373L247.066 507.879L247.285 508.367C247.509 508.839 247.663 509.309 247.746 509.772L247.758 509.85L247.847 509.69C249.059 507.469 249.555 505.183 249.251 503.06L249.241 502.994ZM242.657 502.958L242.503 502.755L241.957 503.213L240.436 504.471L240.164 504.7C239.884 504.936 239.633 505.152 239.401 505.358L239.131 505.6L238.853 505.857L239.48 506.38C240.18 506.967 240.789 507.489 241.359 507.992L241.901 508.475L243.64 506.611L244.468 505.721L244.462 505.709C243.941 504.791 243.323 503.854 242.657 502.958ZM233.39 503.146L233.26 503.019L233.219 503.062C232.71 503.595 232.197 504.124 231.679 504.648L231.163 505.167L231.27 505.332C231.899 506.275 232.677 507.194 233.585 508.087L233.815 508.309L233.856 508.348L233.927 508.281C234.451 507.78 234.989 507.271 235.545 506.749L236.441 505.91L236.317 505.806C235.309 504.948 234.336 504.063 233.39 503.146ZM227.858 499.749L227.808 499.831C226.577 501.902 226.196 504.476 226.768 506.927L226.82 507.137L226.845 507.237L227.103 506.996C227.643 506.488 228.179 505.975 228.711 505.457L229.252 504.925L229.201 504.831C228.314 503.182 227.851 501.507 227.858 499.787V499.749ZM237.64 498.199L236.998 498.937C236.269 499.766 235.53 500.587 234.78 501.399L234.339 501.873L234.449 501.98C235.321 502.824 236.226 503.646 237.17 504.454L237.609 504.825L238.028 504.44C238.297 504.195 238.586 503.943 238.912 503.666L239.447 503.218L240.704 502.182C240.93 501.995 241.133 501.826 241.321 501.667L241.506 501.511L241.417 501.407C240.985 500.906 240.579 500.476 240.242 500.161L240.143 500.069C239.458 499.451 238.709 498.886 237.875 498.348L237.64 498.199ZM246.715 498.109L246.647 498.227C245.954 499.404 244.997 500.506 243.696 501.705L243.588 501.804L243.627 501.858C244.195 502.656 244.734 503.491 245.244 504.363L245.429 504.684L246.885 503.112L248.726 501.114L248.683 501.009C248.26 500.003 247.631 499.059 246.795 498.19L246.715 498.109ZM229.488 499.004L229.481 499.072C229.331 500.658 229.642 502.219 230.37 503.754L230.389 503.792L230.583 503.597C231.012 503.163 231.439 502.725 231.863 502.284L232.186 501.944L232.054 501.81C231.309 501.042 230.577 500.248 229.854 499.425L229.488 499.004ZM230.211 497.249L230.1 497.303L230.129 497.337C231.114 498.512 232.118 499.625 233.156 500.692L233.263 500.801L233.696 500.336C234.456 499.512 235.207 498.679 235.946 497.835L236.306 497.421L236.267 497.4C236.084 497.301 235.897 497.202 235.705 497.102L235.412 496.952C233.698 496.11 232.432 496.204 230.384 497.167L230.211 497.249ZM240.931 494.248L240.3 495.031C239.873 495.555 239.443 496.076 239.009 496.594L238.705 496.954L238.782 497.003C239.931 497.743 240.909 498.547 241.713 499.438L241.896 499.645C242.074 499.852 242.249 500.062 242.423 500.275L242.622 500.522L242.649 500.497C243.93 499.303 244.835 498.216 245.456 497.047L245.473 497.011L245.309 496.881C243.648 495.576 242.432 494.801 241.145 494.324L240.931 494.248ZM238.392 493.798C236.765 493.787 235.283 494.078 233.916 494.675L233.838 494.71L233.974 494.727C234.274 494.772 234.567 494.847 234.857 494.956L235.001 495.014C235.776 495.355 236.488 495.697 237.156 496.052L237.379 496.173L237.817 495.656C238.262 495.125 238.704 494.592 239.141 494.054L239.298 493.859L239.108 493.837C238.949 493.822 238.79 493.81 238.631 493.804L238.392 493.798Z" fill="#FFB61D"/>
<path fill-rule="evenodd" clip-rule="evenodd" d="M266.046 382.411C266.56 381.019 268.412 380.444 269.778 381.024C271.145 381.605 271.993 383.055 272.207 384.524C272.421 385.994 272.096 387.486 271.678 388.911C271.296 390.209 270.836 391.485 270.3 392.728C270.251 392.844 270.184 392.973 270.062 393.001C269.931 393.03 269.81 392.928 269.716 392.833C267.395 390.481 265.995 387.241 265.873 383.939C265.854 383.424 265.867 382.895 266.046 382.411ZM270.059 382.751C269.678 382.424 269.187 382.211 268.685 382.226C267.514 382.262 266.697 383.539 266.723 384.71C266.749 385.881 267.373 386.944 267.978 387.947C268.412 388.665 268.846 389.383 269.279 390.101C269.427 390.346 269.718 390.625 269.948 390.455C270.041 390.387 270.077 390.267 270.107 390.156C270.285 389.504 270.462 388.851 270.639 388.199C270.893 387.266 271.149 386.318 271.133 385.352C271.118 384.385 270.793 383.38 270.059 382.751Z" fill="#FFB61D"/>
<path fill-rule="evenodd" clip-rule="evenodd" d="M269.293 386.5C269.008 386.58 268.697 386.565 268.421 386.457C267.885 386.248 267.515 385.675 267.546 385.1C267.577 384.526 268.007 383.996 268.562 383.846C269.403 383.619 270.35 384.394 270.294 385.263C270.258 385.827 269.838 386.346 269.293 386.5Z" fill="#FFB61D"/>
<g filter="url(#filter2_d_0_1)">
<path d="M86.5146 77.544V81.096H77.3946V111H73.0266V81.096H63.8586V77.544H86.5146ZM109.507 111L101.539 97.32H96.2593V111H91.8913V77.544H102.691C105.219 77.544 107.347 77.976 109.075 78.84C110.835 79.704 112.147 80.872 113.011 82.344C113.875 83.816 114.307 85.496 114.307 87.384C114.307 89.688 113.635 91.72 112.291 93.48C110.979 95.24 108.995 96.408 106.339 96.984L114.739 111H109.507ZM96.2593 93.816H102.691C105.059 93.816 106.835 93.24 108.019 92.088C109.203 90.904 109.795 89.336 109.795 87.384C109.795 85.4 109.203 83.864 108.019 82.776C106.867 81.688 105.091 81.144 102.691 81.144H96.2593V93.816ZM140.87 103.56H126.278L123.59 111H118.982L131.078 77.736H136.118L148.166 111H143.558L140.87 103.56ZM139.622 100.008L133.574 83.112L127.526 100.008H139.622ZM181.086 77.544L168.462 111H163.422L150.798 77.544H155.454L165.966 106.392L176.478 77.544H181.086ZM190.244 81.096V92.28H202.436V95.88H190.244V107.4H203.876V111H185.876V77.496H203.876V81.096H190.244ZM214.853 107.448H226.565V111H210.485V77.544H214.853V107.448ZM235.572 107.448H247.284V111H231.204V77.544H235.572V107.448ZM256.291 77.544V111H251.923V77.544H256.291ZM278.903 111.336C275.799 111.336 272.967 110.616 270.407 109.176C267.847 107.704 265.815 105.672 264.311 103.08C262.839 100.456 262.103 97.512 262.103 94.248C262.103 90.984 262.839 88.056 264.311 85.464C265.815 82.84 267.847 80.808 270.407 79.368C272.967 77.896 275.799 77.16 278.903 77.16C282.039 77.16 284.887 77.896 287.447 79.368C290.007 80.808 292.023 82.824 293.495 85.416C294.967 88.008 295.703 90.952 295.703 94.248C295.703 97.544 294.967 100.488 293.495 103.08C292.023 105.672 290.007 107.704 287.447 109.176C284.887 110.616 282.039 111.336 278.903 111.336ZM278.903 107.544C281.239 107.544 283.335 107 285.191 105.912C287.079 104.824 288.551 103.272 289.607 101.256C290.695 99.24 291.239 96.904 291.239 94.248C291.239 91.56 290.695 89.224 289.607 87.24C288.551 85.224 287.095 83.672 285.239 82.584C283.383 81.496 281.271 80.952 278.903 80.952C276.535 80.952 274.423 81.496 272.567 82.584C270.711 83.672 269.239 85.224 268.151 87.24C267.095 89.224 266.567 91.56 266.567 94.248C266.567 96.904 267.095 99.24 268.151 101.256C269.239 103.272 270.711 104.824 272.567 105.912C274.455 107 276.567 107.544 278.903 107.544Z" fill="black"/>
</g>
</g>
<defs>
<filter id="filter0_d_0_1" x="-4" y="91" width="368" height="112" filterUnits="userSpaceOnUse" color-interpolation-filters="sRGB">
<feFlood flood-opacity="0" result="BackgroundImageFix"/>
<feColorMatrix in="SourceAlpha" type="matrix" values="0 0 0 0 0 0 0 0 0 0 0 0 0 0 0 0 0 0 127 0" result="hardAlpha"/>
<feOffset dy="4"/>
<feGaussianBlur stdDeviation="2"/>
<feComposite in2="hardAlpha" operator="out"/>
<feColorMatrix type="matrix" values="0 0 0 0 0 0 0 0 0 0 0 0 0 0 0 0 0 0 0.25 0"/>
<feBlend mode="normal" in2="BackgroundImageFix" result="effect1_dropShadow_0_1"/>
<feBlend mode="normal" in="SourceGraphic" in2="effect1_dropShadow_0_1" result="shape"/>
</filter>
<filter id="filter1_d_0_1" x="52.3333" y="296.333" width="274.933" height="241.333" filterUnits="userSpaceOnUse" color-interpolation-filters="sRGB">
<feFlood flood-opacity="0" result="BackgroundImageFix"/>
<feColorMatrix in="SourceAlpha" type="matrix" values="0 0 0 0 0 0 0 0 0 0 0 0 0 0 0 0 0 0 127 0" result="hardAlpha"/>
<feOffset dy="4"/>
<feGaussianBlur stdDeviation="2"/>
<feComposite in2="hardAlpha" operator="out"/>
<feColorMatrix type="matrix" values="0 0 0 0 0 0 0 0 0 0 0 0 0 0 0 0 0 0 0.25 0"/>
<feBlend mode="normal" in2="BackgroundImageFix" result="effect1_dropShadow_0_1"/>
<feBlend mode="normal" in="SourceGraphic" in2="effect1_dropShadow_0_1" result="shape"/>
</filter>
<filter id="filter2_d_0_1" x="60.8586" y="77.16" width="239.845" height="43.176" filterUnits="userSpaceOnUse" color-interpolation-filters="sRGB">
<feFlood flood-opacity="0" result="BackgroundImageFix"/>
<feColorMatrix in="SourceAlpha" type="matrix" values="0 0 0 0 0 0 0 0 0 0 0 0 0 0 0 0 0 0 127 0" result="hardAlpha"/>
<feOffset dx="1" dy="5"/>
<feGaussianBlur stdDeviation="2"/>
<feComposite in2="hardAlpha" operator="out"/>
<feColorMatrix type="matrix" values="0 0 0 0 0 0 0 0 0 0 0 0 0 0 0 0 0 0 0.25 0"/>
<feBlend mode="normal" in2="BackgroundImageFix" result="effect1_dropShadow_0_1"/>
<feBlend mode="normal" in="SourceGraphic" in2="effect1_dropShadow_0_1" result="shape"/>
</filter>
<clipPath id="clip0_0_1">
<rect width="360" height="800" fill="white"/>
</clipPath>
</defs>
</svg>
